<svg width="10" height="12" viewBox="0 0 10 12" fill="none" xmlns="http://www.w3.org/2000/svg">
<path d="M0.453125 11.5V0.1875H4.95312C7.44531 0.1875 8.71094 1.39062 8.70312 3.09375C8.71094 4.42188 7.83594 5.25781 6.67188 5.51562V5.625C7.94531 5.6875 9.14844 6.70312 9.15625 8.375C9.14844 10.1719 7.80469 11.5 5.25 11.5H0.453125ZM2.79688 9.5625H4.78125C6.14062 9.57031 6.72656 9.00781 6.71875 8.15625C6.72656 7.20312 6 6.53125 4.84375 6.53125H2.79688V9.5625ZM2.79688 4.92188H4.60938C5.59375 4.92969 6.33594 4.375 6.32812 3.46875C6.33594 2.64844 5.72656 2.09375 4.65625 2.09375H2.79688V4.92188Z" fill="#282828"/>
</svg>
