<svg width="33" height="32" viewBox="0 0 33 32" fill={fill} xmlns="http://www.w3.org/2000/svg">
<path d="M26.5 7H23.035L21.3312 4.445C21.24 4.30819 21.1164 4.196 20.9714 4.11838C20.8264 4.04076 20.6645 4.0001 20.5 4H12.5C12.3355 4.0001 12.1736 4.04076 12.0286 4.11838C11.8836 4.196 11.76 4.30819 11.6687 4.445L9.96375 7H6.5C5.70435 7 4.94129 7.31607 4.37868 7.87868C3.81607 8.44129 3.5 9.20435 3.5 10V24C3.5 24.7956 3.81607 25.5587 4.37868 26.1213C4.94129 26.6839 5.70435 27 6.5 27H26.5C27.2956 27 28.0587 26.6839 28.6213 26.1213C29.1839 25.5587 29.5 24.7956 29.5 24V10C29.5 9.20435 29.1839 8.44129 28.6213 7.87868C28.0587 7.31607 27.2956 7 26.5 7ZM21 16.5C21 17.39 20.7361 18.26 20.2416 19.0001C19.7471 19.7401 19.0443 20.3169 18.2221 20.6575C17.3998 20.9981 16.495 21.0872 15.6221 20.9135C14.7492 20.7399 13.9474 20.3113 13.318 19.682C12.6887 19.0526 12.2601 18.2508 12.0865 17.3779C11.9128 16.505 12.0019 15.6002 12.3425 14.7779C12.6831 13.9557 13.2599 13.2529 13.9999 12.7584C14.74 12.2639 15.61 12 16.5 12C17.6935 12 18.8381 12.4741 19.682 13.318C20.5259 14.1619 21 15.3065 21 16.5Z" fill={fill} />
</svg>
