<svg width="24" height="24" viewBox="0 0 24 24" fill={fill} xmlns="http://www.w3.org/2000/svg">
<g id="clarity:talk-bubbles-solid-badged" clip-path="url(#clip0_3880_13125)">
<path id="Vector" d="M5.33398 12.6654V7.33203H3.33398C2.80355 7.33203 2.29484 7.54274 1.91977 7.91782C1.5447 8.29289 1.33398 8.8016 1.33398 9.33203V21.332C1.33498 21.4558 1.37043 21.5769 1.43637 21.6817C1.50231 21.7865 1.59613 21.8709 1.70732 21.9254C1.81444 21.9741 1.93254 21.9936 2.04963 21.9819C2.16673 21.9702 2.27863 21.9277 2.37398 21.8587L5.80732 19.332H14.7673C15.02 19.3395 15.2715 19.295 15.5063 19.2013C15.7411 19.1076 15.9541 18.9668 16.1322 18.7874C16.3104 18.608 16.4497 18.394 16.5418 18.1586C16.6338 17.9231 16.6766 17.6713 16.6673 17.4187V16.6654H9.33398C8.27312 16.6654 7.2557 16.2439 6.50556 15.4938C5.75541 14.7436 5.33398 13.7262 5.33398 12.6654Z" fill="#C8DF96"/>
<path id="Vector_2" d="M20.0007 9.0013C19.2298 9.00315 18.4691 8.82628 17.7782 8.48459C17.0872 8.1429 16.4849 7.64569 16.0185 7.032C15.5521 6.41831 15.2343 5.70485 15.0901 4.94766C14.9459 4.19046 14.9792 3.41014 15.1873 2.66797H9.33398C8.80355 2.66797 8.29484 2.87868 7.91977 3.25376C7.5447 3.62883 7.33398 4.13754 7.33398 4.66797V12.668C7.33398 13.1984 7.5447 13.7071 7.91977 14.0822C8.29484 14.4573 8.80355 14.668 9.33398 14.668H18.3673L21.554 17.1413C21.6487 17.2113 21.7603 17.255 21.8774 17.2679C21.9945 17.2808 22.113 17.2624 22.2207 17.2146C22.3341 17.1606 22.43 17.0756 22.4972 16.9694C22.5644 16.8633 22.6003 16.7403 22.6007 16.6146V8.24797C21.8205 8.73497 20.9204 8.99577 20.0007 9.0013Z" fill="#83A834"/>
<path id="Vector_3" d="M19.9993 7.33463C21.8403 7.33463 23.3327 5.84225 23.3327 4.0013C23.3327 2.16035 21.8403 0.667969 19.9993 0.667969C18.1584 0.667969 16.666 2.16035 16.666 4.0013C16.666 5.84225 18.1584 7.33463 19.9993 7.33463Z" fill="#83A834"/>
</g>
<defs>
<clipPath id="clip0_3880_13125">
<rect width="24" height="24" fill="white"/>
</clipPath>
</defs>
</svg>
