<svg width="37" height="37" viewBox="0 0 37 37" fill={fill} xmlns="http://www.w3.org/2000/svg">
<path d="M29.5192 28.2935C29.6044 28.3729 29.6727 28.4687 29.7201 28.575C29.7675 28.6814 29.793 28.7962 29.795 28.9127C29.7971 29.0291 29.7757 29.1448 29.7321 29.2528C29.6884 29.3607 29.6235 29.4588 29.5412 29.5412C29.4588 29.6235 29.3607 29.6884 29.2528 29.7321C29.1448 29.7757 29.0291 29.7971 28.9127 29.795C28.7962 29.793 28.6814 29.7675 28.575 29.7201C28.4687 29.6727 28.3729 29.6044 28.2935 29.5192L18.5001 19.7272L8.70666 29.5192C8.54227 29.6723 8.32484 29.7557 8.10018 29.7518C7.87552 29.7478 7.66117 29.6568 7.50228 29.4979C7.3434 29.339 7.25239 29.1247 7.24843 28.9C7.24446 28.6754 7.32785 28.4579 7.48103 28.2935L17.273 18.5001L7.48103 8.70666C7.32785 8.54227 7.24446 8.32484 7.24843 8.10018C7.25239 7.87552 7.3434 7.66117 7.50228 7.50228C7.66117 7.3434 7.87552 7.25239 8.10018 7.24843C8.32484 7.24446 8.54227 7.32785 8.70666 7.48103L18.5001 17.273L28.2935 7.48103C28.4579 7.32785 28.6754 7.24446 28.9 7.24843C29.1247 7.25239 29.339 7.3434 29.4979 7.50228C29.6568 7.66117 29.7478 7.87552 29.7518 8.10018C29.7557 8.32484 29.6723 8.54227 29.5192 8.70666L19.7272 18.5001L29.5192 28.2935Z" fill="black"/>
</svg>
