<svg width="12" height="12" viewBox="0 0 12 12" fill="none" xmlns="http://www.w3.org/2000/svg">
<path d="M9.4745 9.08706C9.50136 9.11209 9.52291 9.14228 9.53785 9.17582C9.5528 9.20936 9.56083 9.24557 9.56148 9.28229C9.56213 9.319 9.55538 9.35547 9.54162 9.38952C9.52787 9.42357 9.5074 9.4545 9.48144 9.48046C9.45547 9.50643 9.42454 9.5269 9.39049 9.54065C9.35645 9.5544 9.31998 9.56115 9.28326 9.56051C9.24655 9.55986 9.21034 9.55182 9.1768 9.53688C9.14326 9.52193 9.11307 9.50038 9.08804 9.47352L6.00002 6.38595L2.91199 9.47352C2.86016 9.52182 2.7916 9.54811 2.72076 9.54686C2.64992 9.54561 2.58233 9.51692 2.53224 9.46682C2.48214 9.41672 2.45344 9.34913 2.45219 9.27829C2.45094 9.20745 2.47724 9.1389 2.52554 9.08706L5.6131 5.99904L2.52554 2.91102C2.47724 2.85918 2.45094 2.79062 2.45219 2.71979C2.45344 2.64895 2.48214 2.58136 2.53224 2.53126C2.58233 2.48116 2.64992 2.45246 2.72076 2.45121C2.7916 2.44996 2.86016 2.47626 2.91199 2.52456L6.00002 5.61213L9.08804 2.52456C9.13987 2.47626 9.20843 2.44996 9.27927 2.45121C9.35011 2.45246 9.4177 2.48116 9.4678 2.53126C9.51789 2.58136 9.54659 2.64895 9.54784 2.71979C9.54909 2.79062 9.5228 2.85918 9.4745 2.91102L6.38693 5.99904L9.4745 9.08706Z" fill="white"/>
</svg>
