<svg width="101" height="101" viewBox="0 0 101 101" fill="none" xmlns="http://www.w3.org/2000/svg">
<g clip-path="url(#clip0_3071_28319)">
<path d="M30.4647 27.5C47.0822 27.5 58.3982 44.3389 52.1307 59.7287L49.4483 66.3067C49.3311 66.5936 49.3098 66.9107 49.3876 67.2107C49.4653 67.5106 49.6378 67.7775 49.8795 67.9714L55.5519 72.5225C55.7841 72.7088 55.9528 72.9626 56.0346 73.2489C56.1163 73.5352 56.1072 73.8398 56.0084 74.1207C55.9096 74.4015 55.7261 74.6448 55.4831 74.8169C55.2402 74.9889 54.9498 75.0813 54.652 75.0812H32.1695C28.8725 75.0816 25.6077 74.4326 22.5616 73.1711C19.5154 71.9097 16.7476 70.0605 14.4161 67.7293C12.0846 65.3981 10.2352 62.6305 8.97339 59.5845C7.71159 56.5385 7.06215 53.2738 7.06215 49.9767C7.06215 37.5625 17.1247 27.5 29.5389 27.5H30.4647Z" fill="#FFDFC2" fill-opacity="0.59"/>
<path d="M77.7208 33C66.1608 33 58.2888 44.714 62.6488 55.42L64.5148 59.996C64.5962 60.1956 64.6111 60.4161 64.557 60.6248C64.5029 60.8335 64.3829 61.0191 64.2148 61.154L60.2688 64.32C60.1072 64.4496 59.9899 64.6262 59.933 64.8253C59.8761 65.0245 59.8825 65.2364 59.9512 65.4318C60.0199 65.6272 60.1476 65.7964 60.3166 65.9161C60.4856 66.0358 60.6876 66.1 60.8948 66.1H76.5348C78.8283 66.1003 81.0995 65.6487 83.2185 64.7712C85.3376 63.8937 87.2631 62.6073 88.885 60.9856C90.5069 59.3639 91.7934 57.4386 92.6712 55.3196C93.549 53.2007 94.0008 50.9296 94.0008 48.636C94.0008 40 87.0008 33 78.3648 33H77.7208Z" fill="#D7D7D7"/>
</g>
<defs>
<clipPath id="clip0_3071_28319">
<rect width="101" height="101" fill="white"/>
</clipPath>
</defs>
</svg>
