<svg width="24" height="24" viewBox="0 0 24 24" fill="black" xmlns="http://www.w3.org/2000/svg">
<path d="M12.3604 4C6.58038 4 2.64438 9.857 4.82438 15.21L5.75738 17.498C5.79812 17.5978 5.80553 17.7081 5.7785 17.8124C5.75147 17.9167 5.69144 18.0095 5.60738 18.077L3.63438 19.66C3.5536 19.7248 3.49494 19.8131 3.4665 19.9127C3.43805 20.0122 3.44123 20.1182 3.47558 20.2159C3.50994 20.3136 3.57378 20.3982 3.6583 20.458C3.74281 20.5179 3.84382 20.55 3.94738 20.55H11.7674C12.9142 20.5501 14.0497 20.3244 15.1093 19.8856C16.1688 19.4468 17.1315 18.8037 17.9425 17.9928C18.7534 17.182 19.3967 16.2193 19.8356 15.1598C20.2745 14.1003 20.5004 12.9648 20.5004 11.818C20.5004 7.5 17.0004 4 12.6824 4H12.3604Z" fill={fill} />
</svg>
