<svg width="23" height="22" viewBox="0 0 23 22" fill={fill} xmlns="http://www.w3.org/2000/svg">
<path fill-rule="evenodd" clip-rule="evenodd" d="M4.92159 13.9423C2.92326 9.03542 6.53309 3.6665 11.8314 3.6665H12.1257C16.0838 3.6665 19.2922 6.87484 19.2922 10.833C19.2922 12.9559 18.4489 14.9918 16.9478 16.4929C15.4467 17.994 13.4107 18.8373 11.2878 18.8373H4.11951C4.0245 18.8375 3.93178 18.8082 3.85416 18.7534C3.77655 18.6986 3.71788 18.6211 3.68627 18.5315C3.65466 18.4419 3.65167 18.3447 3.67772 18.2533C3.70377 18.162 3.75757 18.081 3.83168 18.0215L5.63934 16.5704C5.7164 16.5086 5.77143 16.4235 5.7962 16.3279C5.82098 16.2322 5.81419 16.1311 5.77684 16.0397L4.92159 13.9423ZM12.5088 8.66234C12.5088 8.48 12.4364 8.30513 12.3075 8.1762C12.1785 8.04727 12.0037 7.97484 11.8213 7.97484C11.639 7.97484 11.4641 8.04727 11.3352 8.1762C11.2063 8.30513 11.1338 8.48 11.1338 8.66234V10.4957H9.30051C9.11817 10.4957 8.9433 10.5681 8.81437 10.697C8.68544 10.826 8.61301 11.0008 8.61301 11.1832C8.61301 11.3655 8.68544 11.5404 8.81437 11.6693C8.9433 11.7982 9.11817 11.8707 9.30051 11.8707H11.1338V13.704C11.1338 13.8863 11.2063 14.0612 11.3352 14.1901C11.4641 14.3191 11.639 14.3915 11.8213 14.3915C12.0037 14.3915 12.1785 14.3191 12.3075 14.1901C12.4364 14.0612 12.5088 13.8863 12.5088 13.704V11.8707H14.3422C14.5245 11.8707 14.6994 11.7982 14.8283 11.6693C14.9572 11.5404 15.0297 11.3655 15.0297 11.1832C15.0297 11.0008 14.9572 10.826 14.8283 10.697C14.6994 10.5681 14.5245 10.4957 14.3422 10.4957H12.5088V8.66234Z" fill={fill} />
</svg>
