<svg width="114" height="118" viewBox="0 0 114 118" fill="none" xmlns="http://www.w3.org/2000/svg">
<rect x="0.5" y="0.5" width="113" height="117" rx="9.5" fill="#F0F0F0" fill-opacity="0.4" stroke="#D7D7D7"/>
<rect x="45" y="50" width="24" height="24" rx="5.30357" fill="#D7D7D7"/>
<ellipse cx="56.8182" cy="55.5725" rx="1.81818" ry="2.14286" fill="#F0F0F0"/>
<path fill-rule="evenodd" clip-rule="evenodd" d="M51.1954 62.0698C52.1065 60.383 54.5265 60.383 55.4376 62.0698L57.3168 65.549L59.196 62.0698C60.107 60.383 62.5271 60.383 63.4382 62.0698L66.3406 67.4434C67.2081 69.0496 66.045 70.9998 64.2195 70.9998H58.4147C58.3928 70.9998 58.371 70.9995 58.3493 70.999H56.2843C56.2626 70.9995 56.2408 70.9998 56.2189 70.9998H50.4141C48.5886 70.9998 47.4255 69.0496 48.293 67.4434L51.1954 62.0698Z" fill="#F0F0F0"/>
</svg>
