<svg width="48" height="40" viewBox="0 0 48 40" fill="none" xmlns="http://www.w3.org/2000/svg">
<g clip-path="url(#clip0_3807_8337)">
<path d="M43.0809 15.3728H41.0846C40.5065 6.80077 33.2132 0 24.3296 0C15.4461 0 8.15416 6.80077 7.57602 15.3728H5.57981C2.89626 15.3728 0.713867 17.5134 0.713867 20.1455V25.0817C0.713867 27.7125 2.89626 29.8545 5.57981 29.8545H7.84759C8.8527 29.8545 9.67022 29.0526 9.67022 28.0667V16.4712C9.67022 8.54181 16.2468 2.09254 24.3296 2.09254C32.4125 2.09254 38.989 8.54318 38.989 16.4712V27.5038C38.989 34.2949 32.8688 35.8039 29.3664 36.1115C28.9282 35.138 27.9357 34.4583 26.7808 34.4583H21.7693C20.2084 34.4583 18.9443 35.6996 18.9443 37.2292C18.9443 38.7601 20.2098 40 21.7693 40H26.7808C27.9889 40 29.0192 39.2558 29.4237 38.2109C32.4727 37.9843 35.0946 37.133 37.0768 35.7119C39.0982 34.2634 40.3903 32.2642 40.8887 29.8531H43.0795C45.7616 29.8531 47.9454 27.7125 47.9454 25.0803V20.1442C47.9454 17.5134 45.763 15.3714 43.0795 15.3714L43.0809 15.3728Z" fill="#C8DF96"/>
<rect x="18.8027" y="34" width="11.0542" height="6" rx="3" fill="#B3D36F"/>
</g>
<defs>
<clipPath id="clip0_3807_8337">
<rect x="0.713867" width="47.2315" height="40" rx="9" fill="white"/>
</clipPath>
</defs>
</svg>
