<svg width="48" height="40" viewBox="0 0 48 40" fill="none" xmlns="http://www.w3.org/2000/svg">
<g id="&#236;&#156;&#160;&#236;&#160;&#128;&#236;&#157;&#152; &#236;&#134;&#140;&#235;&#166;&#172;&#237;&#149;&#168; &#236;&#149;&#132;&#236;&#157;&#180;&#236;&#189;&#152;">
<g clip-path="url(#clip0_5822_18520)">
<path id="Vector" d="M43.0811 15.3728H41.0849C40.5067 6.80077 33.2134 0 24.3298 0C15.4463 0 8.15438 6.80077 7.57623 15.3728H5.58002C2.89647 15.3728 0.714081 17.5134 0.714081 20.1455V25.0817C0.714081 27.7125 2.89647 29.8545 5.58002 29.8545H7.84781C8.85291 29.8545 9.67043 29.0526 9.67043 28.0667V16.4712C9.67043 8.54181 16.247 2.09254 24.3298 2.09254C32.4127 2.09254 38.9893 8.54318 38.9893 16.4712V27.5038C38.9893 34.2949 32.869 35.8039 29.3666 36.1115C28.9284 35.138 27.9359 34.4583 26.781 34.4583H21.7695C20.2086 34.4583 18.9446 35.6996 18.9446 37.2292C18.9446 38.7601 20.21 40 21.7695 40H26.781C27.9891 40 29.0194 39.2558 29.424 38.2109C32.4729 37.9843 35.0948 37.133 37.077 35.7119C39.0984 34.2634 40.3905 32.2642 40.8889 29.8531H43.0797C45.7618 29.8531 47.9456 27.7125 47.9456 25.0803V20.1442C47.9456 17.5134 45.7632 15.3714 43.0797 15.3714L43.0811 15.3728Z" fill="#ABEDD1"/>
<rect id="Rectangle 42879" x="18.8027" y="34" width="11.0542" height="6" rx="3" fill="#2DD38D"/>
</g>
</g>
<defs>
<clipPath id="clip0_5822_18520">
<rect x="0.714081" width="47.2315" height="40" rx="9" fill="white"/>
</clipPath>
</defs>
</svg>
