<svg width="24" height="24" viewBox="0 0 24 24" fill="black" xmlns="http://www.w3.org/2000/svg">
<g clip-path="url(#clip0_1414_15461)">
<path d="M22.0009 5.09346C21.1076 3.26013 18.5342 1.76013 15.5409 2.63346C14.1105 3.04662 12.8626 3.93265 12.0009 5.14679C11.1392 3.93265 9.89125 3.04662 8.46089 2.63346C5.46089 1.77346 2.89422 3.26013 2.00089 5.09346C0.747555 7.66013 1.26755 10.5468 3.54755 13.6735C5.33422 16.1201 7.88755 18.6001 11.5942 21.4801C11.7114 21.5715 11.8557 21.6211 12.0042 21.6211C12.1528 21.6211 12.2971 21.5715 12.4142 21.4801C16.1142 18.6068 18.6742 16.1468 20.4609 13.6735C22.7342 10.5468 23.2542 7.66013 22.0009 5.09346Z" fill=
{fill} />
</g>
<defs>
<clipPath id="clip0_1414_15461">
<rect width="24" height="24" fill="white"/>
</clipPath>
</defs>
</svg>
