<svg width="24" height="24" viewBox="0 0 24 24" fill="none" xmlns="http://www.w3.org/2000/svg">
<g id="Component 17" clip-path="url(#clip0_3872_14795)">
<path id="Vector" d="M11.9999 21.6199C11.8526 21.6194 11.7096 21.5702 11.5932 21.4799C7.88658 18.5999 5.33324 16.1199 3.54658 13.6732C1.26658 10.5466 0.746578 7.65988 1.99991 5.09322C2.89324 3.25988 5.45991 1.75988 8.45991 2.63322C9.89027 3.04638 11.1382 3.93241 11.9999 5.14655C12.8616 3.93241 14.1095 3.04638 15.5399 2.63322C18.5332 1.77322 21.1066 3.25988 21.9999 5.09322C23.2532 7.65988 22.7332 10.5466 20.4532 13.6732C18.6666 16.1199 16.1132 18.5999 12.4066 21.4799C12.2902 21.5702 12.1472 21.6194 11.9999 21.6199ZM6.75324 3.71988C6.03941 3.6921 5.33149 3.85925 4.70547 4.20338C4.07946 4.54752 3.55898 5.05564 3.19991 5.67322C2.16658 7.79322 2.63324 10.1532 4.62658 12.8799C6.74496 15.6123 9.22552 18.0435 11.9999 20.1066C14.7739 18.0455 17.2544 15.6166 19.3732 12.8866C21.3732 10.1532 21.8332 7.79322 20.7999 5.67988C20.1332 4.34655 18.1332 3.28655 15.9066 3.91322C15.1926 4.12422 14.5307 4.48236 13.9635 4.9646C13.3963 5.44684 12.9364 6.04249 12.6132 6.71322C12.563 6.83549 12.4776 6.94007 12.3678 7.01367C12.258 7.08728 12.1288 7.12657 11.9966 7.12657C11.8644 7.12657 11.7352 7.08728 11.6254 7.01367C11.5156 6.94007 11.4301 6.83549 11.3799 6.71322C11.0592 6.04081 10.6001 5.44377 10.0325 4.96123C9.46495 4.47869 8.80181 4.12155 8.08658 3.91322C7.65323 3.78735 7.2045 3.72229 6.75324 3.71988Z" fill="white"/>
</g>
<defs>
<clipPath id="clip0_3872_14795">
<rect width="24" height="24" fill="white"/>
</clipPath>
</defs>
</svg>
