<svg width="24" height="24" viewBox="0 0 24 24" fill="none" xmlns="http://www.w3.org/2000/svg">
<g clip-path="url(#clip0_1782_43868)">
<path d="M21.9999 5.09248C21.1066 3.25915 18.5332 1.75915 15.5399 2.63249C14.1096 3.04564 12.8616 3.93167 11.9999 5.14582C11.1382 3.93167 9.89027 3.04564 8.45991 2.63249C5.45991 1.77249 2.89324 3.25915 1.99991 5.09248C0.746578 7.65915 1.26658 10.5458 3.54658 13.6725C5.33325 16.1192 7.88658 18.5992 11.5932 21.4792C11.7104 21.5705 11.8547 21.6201 12.0032 21.6201C12.1518 21.6201 12.2961 21.5705 12.4132 21.4792C16.1132 18.6058 18.6732 16.1458 20.4599 13.6725C22.7332 10.5458 23.2532 7.65915 21.9999 5.09248Z" fill="white"/>
</g>
<defs>
<clipPath id="clip0_1782_43868">
<rect width="24" height="24" fill="white"/>
</clipPath>
</defs>
</svg>
