<svg width="20" height="20" viewBox="0 0 20 20" fill="none" xmlns="http://www.w3.org/2000/svg">
<g clip-path="url(#clip0_1920_19741)">
<path d="M9.99976 18.0176C9.87701 18.0172 9.75785 17.9762 9.66087 17.9009C6.57199 15.5009 4.44421 13.4343 2.95532 11.3954C1.05532 8.78981 0.621986 6.38425 1.66643 4.24537C2.41087 2.71759 4.54976 1.46759 7.04976 2.19537C8.24173 2.53966 9.2817 3.27802 9.99976 4.28981C10.7178 3.27802 11.7578 2.53966 12.9498 2.19537C15.4442 1.4787 17.5887 2.71759 18.3331 4.24537C19.3775 6.38425 18.9442 8.78981 17.0442 11.3954C15.5553 13.4343 13.4275 15.5009 10.3387 17.9009C10.2417 17.9762 10.1225 18.0172 9.99976 18.0176ZM5.62754 3.10092C5.03268 3.07777 4.44275 3.21706 3.92107 3.50384C3.39938 3.79061 2.96565 4.21405 2.66643 4.7287C1.80532 6.49537 2.19421 8.46203 3.85532 10.7343C5.62063 13.0112 7.68777 15.0373 9.99976 16.7565C12.3114 15.039 14.3785 13.0148 16.1442 10.7398C17.8109 8.46203 18.1942 6.49537 17.3331 4.73425C16.7775 3.62314 15.1109 2.73981 13.2553 3.26203C12.6603 3.43787 12.1088 3.73632 11.6361 4.13818C11.1634 4.54005 10.7801 5.03643 10.5109 5.59537C10.469 5.69726 10.3978 5.78441 10.3063 5.84575C10.2148 5.90708 10.1071 5.93983 9.99699 5.93983C9.88683 5.93983 9.77916 5.90708 9.68766 5.84575C9.59616 5.78441 9.52495 5.69726 9.4831 5.59537C9.21586 5.03503 8.83322 4.53749 8.36026 4.13538C7.88729 3.73326 7.33468 3.43564 6.73865 3.26203C6.37753 3.15714 6.00358 3.10292 5.62754 3.10092Z" fill="#282828"/>
</g>
<defs>
<clipPath id="clip0_1920_19741">
<rect width="20" height="20" fill="white"/>
</clipPath>
</defs>
</svg>
