<svg width="8" height="12" viewBox="0 0 8 12" fill="none" xmlns="http://www.w3.org/2000/svg">
<path d="M2.1 10.14L3.812 1.548C3.85467 1.31333 3.75333 1.15867 3.508 1.084C3.27333 1.00933 2.95867 0.971999 2.564 0.971999H2.34L2.516 0.139999H7.172L6.98 0.971999H6.756C6.38267 0.971999 6.05733 1.004 5.78 1.068C5.50267 1.132 5.34267 1.276 5.3 1.5L3.588 10.092C3.54533 10.3267 3.64133 10.4813 3.876 10.556C4.12133 10.6307 4.44133 10.668 4.836 10.668H5.06L4.884 11.5H0.244L0.42 10.668H0.644C1.028 10.668 1.35333 10.636 1.62 10.572C1.89733 10.4973 2.05733 10.3533 2.1 10.14Z" fill="#282828"/>
</svg>
