<svg width="22" height="20" viewBox="0 0 22 20" fill={fill} xmlns="http://www.w3.org/2000/svg">
<path d="M10.9999 19.6199C10.8526 19.6194 10.7096 19.5702 10.5932 19.4799C6.88658 16.5999 4.33324 14.1199 2.54658 11.6732C0.266578 8.54655 -0.253422 5.65988 0.999911 3.09322C1.89324 1.25988 4.45991 -0.240116 7.45991 0.633218C8.89027 1.04638 10.1382 1.93241 10.9999 3.14655C11.8616 1.93241 13.1095 1.04638 14.5399 0.633218C17.5332 -0.226783 20.1066 1.25988 20.9999 3.09322C22.2532 5.65988 21.7332 8.54655 19.4532 11.6732C17.6666 14.1199 15.1132 16.5999 11.4066 19.4799C11.2902 19.5702 11.1472 19.6194 10.9999 19.6199ZM5.75324 1.71988C5.03941 1.6921 4.33149 1.85925 3.70547 2.20338C3.07946 2.54752 2.55898 3.05564 2.19991 3.67322C1.16658 5.79322 1.63324 8.15322 3.62658 10.8799C5.74496 13.6123 8.22552 16.0435 10.9999 18.1066C13.7739 16.0455 16.2544 13.6166 18.3732 10.8866C20.3732 8.15322 20.8332 5.79322 19.7999 3.67988C19.1332 2.34655 17.1332 1.28655 14.9066 1.91322C14.1926 2.12422 13.5307 2.48236 12.9635 2.9646C12.3963 3.44684 11.9364 4.04249 11.6132 4.71322C11.563 4.83549 11.4776 4.94007 11.3678 5.01367C11.258 5.08728 11.1288 5.12657 10.9966 5.12657C10.8644 5.12657 10.7352 5.08728 10.6254 5.01367C10.5156 4.94007 10.4301 4.83549 10.3799 4.71322C10.0592 4.04081 9.60006 3.44377 9.0325 2.96123C8.46495 2.47869 7.80181 2.12155 7.08658 1.91322C6.65323 1.78735 6.2045 1.72229 5.75324 1.71988Z" fill={fill}/>
</svg>
