<svg width="22" height="20" viewBox="0 0 22 20" fill={fill} xmlns="http://www.w3.org/2000/svg" >
<path d="M20.9999 3.09322C20.1066 1.25988 17.5332 -0.240116 14.5399 0.633217C13.1096 1.04638 11.8616 1.93241 10.9999 3.14655C10.1382 1.93241 8.89027 1.04638 7.45991 0.633217C4.45991 -0.226782 1.89324 1.25988 0.999911 3.09322C-0.253422 5.65988 0.266578 8.54655 2.54658 11.6732C4.33325 14.1199 6.88658 16.5999 10.5932 19.4799C10.7104 19.5712 10.8547 19.6209 11.0032 19.6209C11.1518 19.6209 11.2961 19.5712 11.4132 19.4799C15.1132 16.6066 17.6732 14.1466 19.4599 11.6732C21.7332 8.54655 22.2532 5.65988 20.9999 3.09322Z" fill={fill}/>
</svg>
