<svg width="25" height="24" viewBox="0 0 25 24" fill="none" xmlns="http://www.w3.org/2000/svg">
<path d="M12.5 11.5C11.837 11.5 11.2011 11.2366 10.7322 10.7678C10.2634 10.2989 10 9.66304 10 9C10 8.33696 10.2634 7.70107 10.7322 7.23223C11.2011 6.76339 11.837 6.5 12.5 6.5C13.163 6.5 13.7989 6.76339 14.2678 7.23223C14.7366 7.70107 15 8.33696 15 9C15 9.3283 14.9353 9.65339 14.8097 9.95671C14.6841 10.26 14.4999 10.5356 14.2678 10.7678C14.0356 10.9999 13.76 11.1841 13.4567 11.3097C13.1534 11.4353 12.8283 11.5 12.5 11.5ZM12.5 2C10.6435 2 8.86301 2.7375 7.55025 4.05025C6.2375 5.36301 5.5 7.14348 5.5 9C5.5 14.25 12.5 22 12.5 22C12.5 22 19.5 14.25 19.5 9C19.5 7.14348 18.7625 5.36301 17.4497 4.05025C16.137 2.7375 14.3565 2 12.5 2Z" fill="#9EC646"/>
</svg>
