<svg width="20" height="20" viewBox="0 0 20 20" fill="none" xmlns="http://www.w3.org/2000/svg">
<path d="M9.99977 0C10.181 7.6429e-06 10.3561 0.0656426 10.4927 0.184767C10.6293 0.303891 10.7181 0.468446 10.7428 0.648L10.7498 0.75V2.538C12.4715 2.71094 14.0804 3.47389 15.3039 4.69754C16.5274 5.9212 17.2901 7.53026 17.4628 9.252L17.4998 9.25H19.2498C19.4398 9.25006 19.6227 9.32224 19.7616 9.45197C19.9004 9.5817 19.9848 9.7593 19.9978 9.94888C20.0108 10.1385 19.9513 10.3259 19.8313 10.4733C19.7114 10.6207 19.54 10.7171 19.3518 10.743L19.2498 10.75L17.4618 10.749C17.2891 12.4709 16.5262 14.0801 15.3025 15.3037C14.0789 16.5274 12.4697 17.2903 10.7478 17.463L10.7498 17.5V19.25C10.7497 19.44 10.6775 19.6229 10.5478 19.7618C10.4181 19.9006 10.2405 19.9851 10.0509 19.998C9.86131 20.011 9.67388 19.9515 9.52647 19.8316C9.37907 19.7117 9.28267 19.5402 9.25677 19.352L9.24977 19.25L9.25077 17.462C7.52888 17.2893 5.91969 16.5264 4.69602 15.3027C3.47235 14.0791 2.70949 12.4699 2.53677 10.748L2.49977 10.75H0.749771C0.559748 10.7499 0.37683 10.6778 0.23798 10.548C0.0991288 10.4183 0.0146974 10.2407 0.00174539 10.0511C-0.0112066 9.86154 0.0482865 9.67411 0.168204 9.5267C0.288121 9.37929 0.459521 9.2829 0.647771 9.257L0.749771 9.25H2.53777C2.71071 7.52829 3.47366 5.91934 4.69732 4.69587C5.92097 3.4724 7.53003 2.70968 9.25177 2.537L9.24977 2.5V0.75C9.24977 0.551088 9.32879 0.360322 9.46944 0.21967C9.6101 0.0790175 9.80086 0 9.99977 0ZM9.99977 4C8.40847 4 6.88235 4.63214 5.75713 5.75736C4.63191 6.88258 3.99977 8.4087 3.99977 10C3.99977 11.5913 4.63191 13.1174 5.75713 14.2426C6.88235 15.3679 8.40847 16 9.99977 16C11.5911 16 13.1172 15.3679 14.2424 14.2426C15.3676 13.1174 15.9998 11.5913 15.9998 10C15.9998 8.4087 15.3676 6.88258 14.2424 5.75736C13.1172 4.63214 11.5911 4 9.99977 4ZM9.99977 6C11.0606 6 12.0781 6.42143 12.8282 7.17157C13.5783 7.92172 13.9998 8.93913 13.9998 10C13.9998 11.0609 13.5783 12.0783 12.8282 12.8284C12.0781 13.5786 11.0606 14 9.99977 14C8.93891 14 7.92149 13.5786 7.17134 12.8284C6.4212 12.0783 5.99977 11.0609 5.99977 10C5.99977 8.93913 6.4212 7.92172 7.17134 7.17157C7.92149 6.42143 8.93891 6 9.99977 6Z" fill="#9EC646"/>
</svg>
