<svg xmlns="http://www.w3.org/2000/svg" width="66" height="66" viewBox="0 0 66 66" fill="none">
<rect x="33.5" y="29.5" width="1" height="17" fill="#D9D9D9" stroke="#D7D7D7"/>
<path d="M56 11C44.9543 11 36 19.9543 36 31C47.0457 31 56 22.0457 56 11Z" fill="#F1F7E4"/>
<path d="M33.4947 29.4947C20.9173 29.2293 10.7707 19.0827 10.5053 6.50533C23.0827 6.77065 33.2293 16.9173 33.4947 29.4947Z" fill="#F1F7E4" stroke="#D7D7D7"/>
<path d="M34.5064 29.4935C44.8736 29.2292 53.2292 20.8736 53.4936 10.5064C43.1264 10.7708 34.7708 19.1264 34.5064 29.4935Z" stroke="#D7D7D7"/>
<mask id="path-5-inside-1_3131_28730" fill="white">
<path fill-rule="evenodd" clip-rule="evenodd" d="M58 34C58 36.2091 56.2091 38 54 38C51.7909 38 50 36.2091 50 34C50 31.7909 51.7909 30 54 30C56.2091 30 58 31.7909 58 34ZM44.6535 55.9987C45.6464 57.7803 47.6678 59 50 59C52.8508 59 55.2373 57.1774 55.8484 54.7341C58.2576 54.0197 60 51.9464 60 49.5C60 46.4624 57.3137 44 54 44C53.3131 44 52.6532 44.1058 52.0386 44.3006C50.6197 41.7446 47.7763 40 44.5 40C41.489 40 38.8437 41.4735 37.3336 43.6961C36.2414 42.6509 34.7036 42 33 42C31.2311 42 29.641 42.7017 28.5428 43.818C27.3537 40.4378 23.9783 38 20 38C15.4666 38 11.716 41.1657 11.0914 45.2841C8.71339 46.015 7 48.0741 7 50.5C7 53.5376 9.68629 56 13 56C13.4087 56 13.8078 55.9625 14.1936 55.8912C14.8658 58.2551 17.2106 60 20 60C22.0699 60 23.895 59.0392 24.9734 57.5776C26.0381 58.4615 27.4504 59 29 59C31.087 59 32.9251 58.0233 34 56.5413C35.0749 58.0233 36.913 59 39 59C41.3322 59 43.3536 57.7803 44.3465 55.9987C44.3975 55.9996 44.4487 56 44.5 56C44.5513 56 44.6025 55.9996 44.6535 55.9987Z"/>
</mask>
<path fill-rule="evenodd" clip-rule="evenodd" d="M58 34C58 36.2091 56.2091 38 54 38C51.7909 38 50 36.2091 50 34C50 31.7909 51.7909 30 54 30C56.2091 30 58 31.7909 58 34ZM44.6535 55.9987C45.6464 57.7803 47.6678 59 50 59C52.8508 59 55.2373 57.1774 55.8484 54.7341C58.2576 54.0197 60 51.9464 60 49.5C60 46.4624 57.3137 44 54 44C53.3131 44 52.6532 44.1058 52.0386 44.3006C50.6197 41.7446 47.7763 40 44.5 40C41.489 40 38.8437 41.4735 37.3336 43.6961C36.2414 42.6509 34.7036 42 33 42C31.2311 42 29.641 42.7017 28.5428 43.818C27.3537 40.4378 23.9783 38 20 38C15.4666 38 11.716 41.1657 11.0914 45.2841C8.71339 46.015 7 48.0741 7 50.5C7 53.5376 9.68629 56 13 56C13.4087 56 13.8078 55.9625 14.1936 55.8912C14.8658 58.2551 17.2106 60 20 60C22.0699 60 23.895 59.0392 24.9734 57.5776C26.0381 58.4615 27.4504 59 29 59C31.087 59 32.9251 58.0233 34 56.5413C35.0749 58.0233 36.913 59 39 59C41.3322 59 43.3536 57.7803 44.3465 55.9987C44.3975 55.9996 44.4487 56 44.5 56C44.5513 56 44.6025 55.9996 44.6535 55.9987Z" fill="#F0F0F0"/>
<path d="M44.6535 55.9987L45.527 55.5119L45.2355 54.9889L44.6369 54.9989L44.6535 55.9987ZM55.8484 54.7341L55.5641 53.7753L55.0168 53.9376L54.8783 54.4915L55.8484 54.7341ZM52.0386 44.3006L51.1642 44.786L51.5611 45.5009L52.3407 45.2539L52.0386 44.3006ZM37.3336 43.6961L36.6422 44.4186L37.4964 45.2361L38.1608 44.2581L37.3336 43.6961ZM28.5428 43.818L27.5995 44.1499L28.1315 45.6621L29.2557 44.5193L28.5428 43.818ZM11.0914 45.2841L11.3852 46.24L11.9859 46.0554L12.0801 45.4341L11.0914 45.2841ZM14.1936 55.8912L15.1555 55.6177L14.9066 54.7423L14.0117 54.9079L14.1936 55.8912ZM24.9734 57.5776L25.6122 56.8082L24.7975 56.1318L24.1688 56.9839L24.9734 57.5776ZM34 56.5413L34.8095 55.9542L34 54.8382L33.1905 55.9542L34 56.5413ZM44.3465 55.9987L44.3631 54.9989L43.7645 54.9889L43.473 55.5119L44.3465 55.9987ZM54 39C56.7614 39 59 36.7614 59 34H57C57 35.6569 55.6569 37 54 37V39ZM49 34C49 36.7614 51.2386 39 54 39V37C52.3431 37 51 35.6569 51 34H49ZM54 29C51.2386 29 49 31.2386 49 34H51C51 32.3431 52.3431 31 54 31V29ZM59 34C59 31.2386 56.7614 29 54 29V31C55.6569 31 57 32.3431 57 34H59ZM43.78 56.4855C44.9576 58.5985 47.3222 60 50 60V58C48.0134 58 46.3352 56.962 45.527 55.5119L43.78 56.4855ZM50 60C53.2646 60 56.0855 57.9075 56.8185 54.9767L54.8783 54.4915C54.3891 56.4474 52.4371 58 50 58V60ZM56.1327 55.6928C58.9052 54.8707 61 52.4499 61 49.5H59C59 51.4428 57.6101 53.1687 55.5641 53.7753L56.1327 55.6928ZM61 49.5C61 45.83 57.7823 43 54 43V45C56.8451 45 59 47.0948 59 49.5H61ZM54 43C53.2101 43 52.4483 43.1217 51.7364 43.3473L52.3407 45.2539C52.858 45.0899 53.4161 45 54 45V43ZM44.5 41C47.4204 41 49.9252 42.5539 51.1642 44.786L52.9129 43.8152C51.3141 40.9353 48.1323 39 44.5 39V41ZM38.1608 44.2581C39.4829 42.3121 41.8171 41 44.5 41V39C41.1609 39 38.2044 40.6349 36.5065 43.1342L38.1608 44.2581ZM38.025 42.9737C36.7452 41.7489 34.9592 41 33 41V43C34.4481 43 35.7376 43.5529 36.6422 44.4186L38.025 42.9737ZM33 41C30.9659 41 29.1181 41.8073 27.8299 43.1167L29.2557 44.5193C30.1638 43.5961 31.4962 43 33 43V41ZM29.4861 43.4861C28.1506 39.6897 24.3854 37 20 37V39C23.5711 39 26.5568 41.186 27.5995 44.1499L29.4861 43.4861ZM20 37C15.0079 37 10.8066 40.4925 10.1027 45.1342L12.0801 45.4341C12.6253 41.8389 15.9252 39 20 39V37ZM10.7976 44.3282C8.06021 45.1696 6 47.5749 6 50.5H8C8 48.5732 9.36657 46.8604 11.3852 46.24L10.7976 44.3282ZM6 50.5C6 54.17 9.21769 57 13 57V55C10.1549 55 8 52.9052 8 50.5H6ZM13 57C13.4699 57 13.9299 56.9569 14.3755 56.8745L14.0117 54.9079C13.6858 54.9682 13.3475 55 13 55V57ZM13.2317 56.1647C14.037 58.9967 16.8045 61 20 61V59C17.6167 59 15.6946 57.5136 15.1555 55.6177L13.2317 56.1647ZM20 61C22.3787 61 24.506 59.8954 25.7781 58.1713L24.1688 56.9839C23.2839 58.1831 21.7611 59 20 59V61ZM24.3347 58.347C25.5793 59.3804 27.2178 60 29 60V58C27.6831 58 26.4969 57.5427 25.6122 56.8082L24.3347 58.347ZM29 60C31.3982 60 33.5411 58.8771 34.8095 57.1285L33.1905 55.9542C32.309 57.1695 30.7757 58 29 58V60ZM33.1905 57.1285C34.4589 58.8771 36.6018 60 39 60V58C37.2243 58 35.691 57.1695 34.8095 55.9542L33.1905 57.1285ZM39 60C41.6778 60 44.0424 58.5985 45.22 56.4855L43.473 55.5119C42.6648 56.962 40.9866 58 39 58V60ZM44.5 55C44.4543 55 44.4087 54.9996 44.3631 54.9989L44.3298 56.9986C44.3864 56.9995 44.4431 57 44.5 57V55ZM44.6369 54.9989C44.5913 54.9996 44.5457 55 44.5 55V57C44.5569 57 44.6136 56.9995 44.6702 56.9986L44.6369 54.9989Z" fill="#D7D7D7" mask="url(#path-5-inside-1_3131_28730)"/>
</svg>