<svg xmlns="http://www.w3.org/2000/svg" width="90" height="91" viewBox="0 0 90 91" fill="none">
<rect x="9.60742" y="25.5205" width="77.4677" height="52.0594" fill="#FFF4EB"/>
<path d="M57.3946 9.69531H3.5C2.39543 9.69531 1.5 10.5907 1.5 11.6953V87.0001C1.5 88.1047 2.39543 89.0001 3.5 89.0001H74.9719C76.0764 89.0001 76.9719 88.1047 76.9719 87.0001V40.7423" stroke="#D7D7D7" stroke-width="3" stroke-linecap="round"/>
<rect x="12.123" y="31.1709" width="44.1952" height="2.85783" rx="1.42892" fill="#D7D7D7"/>
<rect x="12.123" y="39.7451" width="44.1952" height="2.85783" rx="1.42892" fill="#D7D7D7"/>
<rect x="12.123" y="65.4658" width="44.1952" height="2.85783" rx="1.42892" fill="#D7D7D7"/>
<rect x="12.123" y="74.0391" width="44.1952" height="2.85783" rx="1.42892" fill="#D7D7D7"/>
<rect x="23.6816" y="48.3184" width="32.6365" height="2.85783" rx="1.42892" fill="#D7D7D7"/>
<rect x="12.123" y="21.1689" width="32.6365" height="2.85783" rx="1.42892" fill="#D7D7D7"/>
<rect x="12.123" y="56.8916" width="32.6365" height="2.85783" rx="1.42892" fill="#D7D7D7"/>
<path d="M48.7555 41.1889L50.1913 29.9383C50.244 29.5254 50.424 29.1388 50.7062 28.8322L74.5015 2.98122C75.2531 2.16469 76.5226 2.11213 77.333 2.86399L86.9491 11.7854C87.7551 12.5331 87.8023 13.7942 87.0549 14.6063L63.251 40.4666C62.9675 40.7746 62.5951 40.9864 62.186 41.0723L51.1428 43.3921C49.7989 43.6744 48.5817 42.551 48.7555 41.1889Z" fill="white" stroke="#D7D7D7" stroke-width="3"/>
</svg>