<svg width="25" height="24" viewBox="0 0 25 24" fill={fill} xmlns="http://www.w3.org/2000/svg">
<g id="call 1">
<path id="Vector" d="M10.9698 7.87081L9.10986 9.7408C9.87037 10.8441 10.7306 11.8751 11.6798 12.8208C12.629 13.7702 13.6634 14.6305 14.7698 15.3908L16.6298 13.5308C16.8172 13.3446 17.0706 13.24 17.3348 13.24C17.599 13.24 17.8525 13.3446 18.0398 13.5308L21.5798 17.0708C21.7661 17.2582 21.8706 17.5116 21.8706 17.7758C21.8706 18.04 21.7661 18.2935 21.5798 18.4808L20.8198 19.2408L19.2698 20.7908C18.9934 21.0658 18.6425 21.2539 18.2606 21.3321C17.8786 21.4102 17.4821 21.375 17.1198 21.2308C16.2664 20.8667 15.432 20.4595 14.6198 20.0108C12.5045 18.8308 10.5627 17.3635 8.84986 15.6508C7.13561 13.9393 5.66817 11.9973 4.48986 9.8808C4.03926 9.06963 3.63202 8.23513 3.26987 7.3808C3.1269 7.01761 3.09332 6.62053 3.17328 6.2385C3.25325 5.85646 3.44324 5.50617 3.71986 5.23081L5.25986 3.6908L6.01987 2.9208C6.11283 2.82707 6.22342 2.75268 6.34528 2.70191C6.46714 2.65114 6.59785 2.625 6.72986 2.625C6.86188 2.625 6.99258 2.65114 7.11444 2.70191C7.2363 2.75268 7.3469 2.82707 7.43986 2.9208L10.9698 6.4608C11.1561 6.64817 11.2606 6.90162 11.2606 7.16581C11.2606 7.42999 11.1561 7.68344 10.9698 7.87081Z" fill="#83A834"/>
</g>
</svg>
