<svg width="101" height="101" viewBox="0 0 101 101" fill="none" xmlns="http://www.w3.org/2000/svg">
<rect x="11.5" y="27.96" width="86" height="55" fill="#FFF4EB"/>
<path d="M64.5508 11.2412H4.5C3.39543 11.2412 2.5 12.1366 2.5 13.2412V93.0256C2.5 94.1301 3.39543 95.0256 4.5 95.0256H84.2844C85.3889 95.0256 86.2843 94.1301 86.2843 93.0256V44.0419" stroke="#D7D7D7" stroke-width="3" stroke-linecap="round"/>
<rect x="14.293" y="33.9297" width="49.0629" height="3.01926" rx="1.50963" fill="#D7D7D7"/>
<rect x="14.293" y="42.9873" width="49.0629" height="3.01926" rx="1.50963" fill="#D7D7D7"/>
<rect x="14.293" y="70.1611" width="49.0629" height="3.01926" rx="1.50963" fill="#D7D7D7"/>
<rect x="14.293" y="79.2188" width="49.0629" height="3.01926" rx="1.50963" fill="#D7D7D7"/>
<rect x="27.125" y="52.0449" width="36.2311" height="3.01926" rx="1.50963" fill="#D7D7D7"/>
<rect x="14.293" y="23.3623" width="36.2311" height="3.01926" rx="1.50963" fill="#D7D7D7"/>
<rect x="14.293" y="61.1025" width="36.2311" height="3.01926" rx="1.50963" fill="#D7D7D7"/>
<path d="M54.9396 44.6733L56.5575 32.6084C56.6143 32.185 56.8052 31.7909 57.1022 31.4838L83.7266 3.95728C84.47 3.18873 85.6863 3.1408 86.4879 3.84848L97.4105 13.4922C98.2653 14.2469 98.3171 15.5623 97.5244 16.3819L71.0029 43.802C70.7204 44.094 70.3558 44.2931 69.9574 44.3727L57.314 46.9003C55.968 47.1694 54.7572 46.0337 54.9396 44.6733Z" fill="white" stroke="#D7D7D7" stroke-width="3"/>
</svg>
