<svg width="61" height="60" viewBox="0 0 61 60" fill="none" xmlns="http://www.w3.org/2000/svg">
<path d="M37.4174 11.3848H8.33994C7.78868 11.3848 7.3418 11.8316 7.3418 12.3829V50.9964C7.3418 51.5476 7.78868 51.9945 8.33994 51.9945H46.9534C47.5047 51.9945 47.9515 51.5476 47.9515 50.9964V27.2831" stroke="#D7D7D7" stroke-width="1.99629" stroke-linecap="round"/>
<rect x="13.0586" y="22.3809" width="20" height="1.46341" rx="0.731707" fill="#D7D7D7"/>
<rect x="13.0586" y="26.7715" width="20" height="1.46341" rx="0.731707" fill="#D7D7D7"/>
<rect x="13.0586" y="39.9424" width="23.7805" height="1.46341" rx="0.731707" fill="#D7D7D7"/>
<rect x="13.0586" y="44.332" width="23.7805" height="1.46341" rx="0.731707" fill="#D7D7D7"/>
<rect x="19.2773" y="31.1611" width="17.561" height="1.46341" rx="0.731707" fill="#D7D7D7"/>
<rect x="13.0586" y="17.2588" width="17.561" height="1.46341" rx="0.731707" fill="#D7D7D7"/>
<rect x="13.0586" y="35.5508" width="17.561" height="1.46341" rx="0.731707" fill="#D7D7D7"/>
<path d="M32.7645 27.5484L33.542 21.7499C33.5704 21.5386 33.6656 21.3419 33.8139 21.1886L46.6929 7.87325C47.0639 7.48969 47.6709 7.46577 48.071 7.81895L53.3219 12.4551C53.7485 12.8317 53.7744 13.4883 53.3787 13.8973L40.5511 27.1595C40.4102 27.3053 40.2282 27.4046 40.0293 27.4444L33.9494 28.6598C33.2777 28.7941 32.6734 28.2274 32.7645 27.5484Z" stroke="#D7D7D7" stroke-width="1.99629"/>
</svg>
