<svg width="20" height="20" viewBox="0 0 20 20" fill="black" xmlns="http://www.w3.org/2000/svg">
<g clip-path="url(#clip0_3849_12623)">
<path d="M19.8174 18.9266L13.7445 12.8166C14.8764 11.4609 15.5586 9.71688 15.5586 7.8125C15.5586 3.49781 12.0608 0 7.74609 0C3.43141 0 -0.0664062 3.49781 -0.0664062 7.8125C-0.0664062 12.1272 3.43141 15.625 7.74609 15.625C9.70641 15.625 11.497 14.9012 12.8689 13.7081L18.9333 19.8106C19.1773 20.0547 19.5733 20.0547 19.8174 19.8106C20.0611 19.5666 20.0611 19.1709 19.8174 18.9266H19.8174ZM7.74609 14.3853C4.11609 14.3853 1.17328 11.4425 1.17328 7.8125C1.17328 4.1825 4.11609 1.23969 7.74609 1.23969C11.3761 1.23969 14.3189 4.1825 14.3189 7.8125C14.3189 11.4425 11.3761 14.3853 7.74609 14.3853Z" fill={fill} />
</g>
<defs>
<clipPath id="clip0_3849_12623">
<rect width="20" height="20" fill="white"/>
</clipPath>
</defs>
</svg>
