<svg width="100%" height="100%" viewBox="0 0 42 42" fill="none" xmlns="http://www.w3.org/2000/svg">
<path fill-rule="evenodd" clip-rule="evenodd" d="M30.4272 18.7416C31.4024 20.4445 31.9794 22.4528 32.0328 24.644C32.0328 30.9833 27.0219 36.1222 20.8406 36.1222C14.6593 36.1222 9.80503 30.9833 9.80503 24.644C9.69397 22.475 10.2484 20.4252 11.2792 18.6745C12.6215 16.1174 18.0921 6.95464 20.9974 3C23.1719 5.09888 28.1924 14.3689 30.4308 18.7416H30.4272Z" fill="url(#paint0_linear_3865_9569)"/>
<path d="M19.6638 11.7331C17.6107 13.3333 13.7618 17.4588 14.7905 21.1584" stroke="#FF9029" stroke-width="0.5" stroke-linecap="round"/>
<path d="M20.9272 21.2754C21.4836 22.6191 22.4481 25.871 21.8546 28.1284" stroke="#FF9029" stroke-width="0.5" stroke-linecap="round"/>
<path d="M25.3822 13.2793C25.9387 14.623 26.9032 17.8749 26.3096 20.1323" stroke="#FF9029" stroke-width="0.5" stroke-linecap="round"/>
<path fill-rule="evenodd" clip-rule="evenodd" d="M29.2378 7.5722C31.0533 11.7544 33.9903 20.9007 34.6427 23.4374C35.2008 25.2103 35.2223 27.1308 34.569 28.9965C32.9758 34.5194 26.994 37.8397 21.0215 36.3664C20.9935 36.3595 20.9656 36.3525 20.9377 36.3454L29.2378 7.5722Z" fill="url(#paint1_linear_3865_9569)" fill-opacity="0.9"/>
<path fill-rule="evenodd" clip-rule="evenodd" d="M29.2378 7.5722C31.0533 11.7544 33.9903 20.9007 34.6427 23.4374C35.2008 25.2103 35.2223 27.1308 34.569 28.9965C32.9758 34.5194 26.994 37.8397 21.0215 36.3664C20.9935 36.3595 20.9656 36.3525 20.9377 36.3454L29.2378 7.5722Z" fill="#FFE9DA" fill-opacity="0.45"/>
<path fill-rule="evenodd" clip-rule="evenodd" d="M12.7547 7.57783C10.9293 11.7855 7.97359 20.9985 7.34261 23.4761C6.79645 25.2381 6.78007 27.1442 7.42853 28.9961C9.02174 34.5191 15.0036 37.8393 20.976 36.366C21.0019 36.3596 21.0278 36.3531 21.0536 36.3466L12.7547 7.57783Z" fill="url(#paint2_linear_3865_9569)" fill-opacity="0.71"/>
<path fill-rule="evenodd" clip-rule="evenodd" d="M12.7547 7.57783C10.9293 11.7855 7.97359 20.9985 7.34261 23.4761C6.79645 25.2381 6.78007 27.1442 7.42853 28.9961C9.02174 34.5191 15.0036 37.8393 20.976 36.366C21.0019 36.3596 21.0278 36.3531 21.0536 36.3466L12.7547 7.57783Z" fill="#FFE9DA" fill-opacity="0.45"/>
<defs>
<linearGradient id="paint0_linear_3865_9569" x1="20.9119" y1="3" x2="20.9119" y2="36.1221" gradientUnits="userSpaceOnUse">
<stop stop-color="white"/>
<stop offset="1" stop-color="white" stop-opacity="0"/>
</linearGradient>
<linearGradient id="paint1_linear_3865_9569" x1="34.8583" y1="26.417" x2="25.2471" y2="24.1786" gradientUnits="userSpaceOnUse">
<stop stop-color="#EA803D"/>
<stop offset="1" stop-color="#E4884E" stop-opacity="0"/>
</linearGradient>
<linearGradient id="paint2_linear_3865_9569" x1="7.13936" y1="26.4183" x2="16.7456" y2="24.1805" gradientUnits="userSpaceOnUse">
<stop stop-color="#EA803D"/>
<stop offset="1" stop-color="#E87D3A" stop-opacity="0"/>
</linearGradient>
</defs>
</svg>
