<svg width="22" height="22" viewBox="0 0 22 22" fill="none" xmlns="http://www.w3.org/2000/svg">
<g id="Frame 427321015" clip-path="url(#clip0_3739_48024)">
<g id="Group 484147">
<g id="Group 484038">
<g id="Group 483370">
<g id="Group 483369">
<path id="Union" fill-rule="evenodd" clip-rule="evenodd" d="M16.4298 9.09864C16.9942 10.0834 17.3282 11.2449 17.3591 12.5123C17.3591 16.1764 14.4628 19.1467 10.89 19.1467C7.3172 19.1467 4.51142 16.1764 4.51142 12.5123C4.44762 11.266 4.76392 10.0879 5.35295 9.07993C6.11026 7.63047 9.2936 2.29626 10.9805 0C12.2374 1.21315 15.1392 6.57124 16.4331 9.09864H16.4298Z" fill="url(#paint0_linear_3739_48024)"/>
<path id="Vector 658" d="M10.2097 5.05097C9.023 5.97592 6.79834 8.36042 7.39293 10.4988" stroke="white" stroke-width="0.0928337" stroke-linecap="round"/>
<path id="Vector 659" d="M10.9396 10.5625C11.2612 11.3392 11.8187 13.2187 11.4756 14.5235" stroke="white" stroke-width="0.0928337" stroke-linecap="round"/>
<path id="Vector 660" d="M13.5168 5.9375C13.8384 6.71418 14.3959 8.59373 14.0528 9.89855" stroke="white" stroke-width="0.0928337" stroke-linecap="round"/>
</g>
<g id="Subtract">
<path fill-rule="evenodd" clip-rule="evenodd" d="M15.7769 2.89446C16.8241 5.30474 18.5196 10.5832 18.9012 12.0619C19.2262 13.0889 19.2397 14.2019 18.8611 15.283C17.9402 18.4753 14.4827 20.3944 11.0307 19.5428C11.0131 19.5385 10.9956 19.5341 10.9781 19.5297L15.7769 2.89446Z" fill="url(#paint1_linear_3739_48024)"/>
<path fill-rule="evenodd" clip-rule="evenodd" d="M15.7769 2.89446C16.8241 5.30474 18.5196 10.5832 18.9012 12.0619C19.2262 13.0889 19.2397 14.2019 18.8611 15.283C17.9402 18.4753 14.4827 20.3944 11.0307 19.5428C11.0131 19.5385 10.9956 19.5341 10.9781 19.5297L15.7769 2.89446Z" fill="white" fill-opacity="0.4"/>
</g>
<g id="Subtract_2">
<path fill-rule="evenodd" clip-rule="evenodd" d="M6.22013 2.89529C5.17276 5.30782 3.47928 10.5801 3.09796 12.0578C2.77293 13.0847 2.75948 14.1978 3.13805 15.2789C4.05892 18.4712 7.5164 20.3903 10.9685 19.5387C10.9849 19.5346 11.0013 19.5305 11.0177 19.5264L6.22013 2.89529Z" fill="url(#paint2_linear_3739_48024)"/>
<path fill-rule="evenodd" clip-rule="evenodd" d="M6.22013 2.89529C5.17276 5.30782 3.47928 10.5801 3.09796 12.0578C2.77293 13.0847 2.75948 14.1978 3.13805 15.2789C4.05892 18.4712 7.5164 20.3903 10.9685 19.5387C10.9849 19.5346 11.0013 19.5305 11.0177 19.5264L6.22013 2.89529Z" fill="white" fill-opacity="0.4"/>
</g>
</g>
</g>
</g>
</g>
<defs>
<linearGradient id="paint0_linear_3739_48024" x1="10.9312" y1="0" x2="10.9312" y2="19.1467" gradientUnits="userSpaceOnUse">
<stop stop-color="white"/>
<stop offset="1" stop-color="#E06B9F"/>
</linearGradient>
<linearGradient id="paint1_linear_3739_48024" x1="19.0287" y1="13.7902" x2="13.4697" y2="12.4956" gradientUnits="userSpaceOnUse">
<stop stop-color="white"/>
<stop offset="1" stop-color="white" stop-opacity="0"/>
</linearGradient>
<linearGradient id="paint2_linear_3739_48024" x1="2.97081" y1="13.7879" x2="8.5268" y2="12.4939" gradientUnits="userSpaceOnUse">
<stop stop-color="white"/>
<stop offset="1" stop-color="white" stop-opacity="0"/>
</linearGradient>
<clipPath id="clip0_3739_48024">
<rect width="22" height="22" fill="white"/>
</clipPath>
</defs>
</svg>
