<svg width="94" height="119" viewBox="0 0 94 119" fill="none" xmlns="http://www.w3.org/2000/svg">
<g id="Group 484147">
<g id="Group 484146" filter="url(#filter0_d_5822_18844)">
<path id="Union" fill-rule="evenodd" clip-rule="evenodd" d="M85 6H9V83.7405H85V6ZM9.06668 83.7421L46.9999 108.108L84.9331 83.7421L9.06668 83.7421Z" fill="#E06B9F"/>
</g>
<path id="Vector 1759" d="M12 80.6618V10H81V80.6618L46.5 103L12 80.6618Z" stroke="#EDABC8"/>
<g id="Group 484037">
<g id="Group 484038">
<g id="Group 483370">
<g id="Group 483369">
<path id="Union_2" fill-rule="evenodd" clip-rule="evenodd" d="M60.3324 49.335C61.7165 51.7514 62.5354 54.601 62.6112 57.7105C62.6112 66.7049 55.5014 73.9964 46.7311 73.9964C37.9608 73.9964 31.0733 66.7049 31.0733 57.7105C30.9159 54.6364 31.7007 51.7311 33.1602 49.2488C35.0564 45.6334 42.8279 32.6157 46.9535 27C50.0388 29.978 57.1621 43.1308 60.3381 49.335H60.3324Z" fill="url(#paint0_linear_5822_18844)"/>
<path id="Vector 658" d="M45.0611 39.3894C42.1481 41.6599 36.6871 47.5133 38.1467 52.7626" stroke="white" stroke-width="0.250661" stroke-linecap="round"/>
<path id="Vector 659" d="M46.8529 52.9297C47.6424 54.8362 49.0109 59.4501 48.1687 62.6531" stroke="white" stroke-width="0.250661" stroke-linecap="round"/>
<path id="Vector 660" d="M53.1792 41.5859C53.9687 43.4925 55.3372 48.1063 54.4951 51.3093" stroke="white" stroke-width="0.250661" stroke-linecap="round"/>
</g>
<g id="Subtract">
<path fill-rule="evenodd" clip-rule="evenodd" d="M58.7311 34.0922C61.3048 40.0196 65.469 52.9859 66.3993 56.5979C67.1943 59.1162 67.2261 61.845 66.2979 64.4956C64.0374 72.3319 55.5501 77.0428 47.0762 74.9524C47.0351 74.9423 46.994 74.932 46.9531 74.9216L58.7311 34.0922Z" fill="url(#paint1_linear_5822_18844)"/>
<path fill-rule="evenodd" clip-rule="evenodd" d="M58.7311 34.0922C61.3048 40.0196 65.469 52.9859 66.3993 56.5979C67.1943 59.1162 67.2261 61.845 66.2979 64.4956C64.0374 72.3319 55.5501 77.0428 47.0762 74.9524C47.0351 74.9423 46.994 74.932 46.9531 74.9216L58.7311 34.0922Z" fill="white" fill-opacity="0.4"/>
</g>
<g id="Subtract_2">
<path fill-rule="evenodd" clip-rule="evenodd" d="M35.2639 34.1018C32.6899 40.0341 28.5302 52.9869 27.6004 56.5967C26.8054 59.1151 26.7736 61.8438 27.7017 64.4945C29.9622 72.3307 38.4495 77.0416 46.9235 74.9513C46.9622 74.9417 47.0008 74.932 47.0393 74.9223L35.2639 34.1018Z" fill="url(#paint2_linear_5822_18844)"/>
<path fill-rule="evenodd" clip-rule="evenodd" d="M35.2639 34.1018C32.6899 40.0341 28.5302 52.9869 27.6004 56.5967C26.8054 59.1151 26.7736 61.8438 27.7017 64.4945C29.9622 72.3307 38.4495 77.0416 46.9235 74.9513C46.9622 74.9417 47.0008 74.932 47.0393 74.9223L35.2639 34.1018Z" fill="white" fill-opacity="0.4"/>
</g>
</g>
</g>
</g>
</g>
<defs>
<filter id="filter0_d_5822_18844" x="0.877863" y="0.198474" width="92.2443" height="118.354" filterUnits="userSpaceOnUse" color-interpolation-filters="sRGB">
<feFlood flood-opacity="0" result="BackgroundImageFix"/>
<feColorMatrix in="SourceAlpha" type="matrix" values="0 0 0 0 0 0 0 0 0 0 0 0 0 0 0 0 0 0 127 0" result="hardAlpha"/>
<feOffset dy="2.32061"/>
<feGaussianBlur stdDeviation="4.06107"/>
<feComposite in2="hardAlpha" operator="out"/>
<feColorMatrix type="matrix" values="0 0 0 0 0.190415 0 0 0 0 0.190415 0 0 0 0 0.190415 0 0 0 0.25 0"/>
<feBlend mode="normal" in2="BackgroundImageFix" result="effect1_dropShadow_5822_18844"/>
<feBlend mode="normal" in="SourceGraphic" in2="effect1_dropShadow_5822_18844" result="shape"/>
</filter>
<linearGradient id="paint0_linear_5822_18844" x1="46.8323" y1="27" x2="46.8323" y2="73.9964" gradientUnits="userSpaceOnUse">
<stop stop-color="white"/>
<stop offset="1" stop-color="#E06B9F"/>
</linearGradient>
<linearGradient id="paint1_linear_5822_18844" x1="66.7089" y1="60.8337" x2="53.0683" y2="57.657" gradientUnits="userSpaceOnUse">
<stop stop-color="white"/>
<stop offset="1" stop-color="white" stop-opacity="0"/>
</linearGradient>
<linearGradient id="paint2_linear_5822_18844" x1="27.2916" y1="60.8365" x2="40.9257" y2="57.6611" gradientUnits="userSpaceOnUse">
<stop stop-color="white"/>
<stop offset="1" stop-color="white" stop-opacity="0"/>
</linearGradient>
</defs>
</svg>
