<svg width="15" height="18" viewBox="0 0 15 18" fill="none" xmlns="http://www.w3.org/2000/svg">
<path d="M5.50065 8.99935C5.50065 9.55188 5.28116 10.0818 4.89046 10.4725C4.49976 10.8632 3.96985 11.0827 3.41732 11.0827C2.86478 11.0827 2.33488 10.8632 1.94418 10.4725C1.55348 10.0818 1.33398 9.55188 1.33398 8.99935C1.33398 8.44681 1.55348 7.91691 1.94418 7.52621C2.33488 7.13551 2.86478 6.91602 3.41732 6.91602C3.96985 6.91602 4.49976 7.13551 4.89046 7.52621C5.28116 7.91691 5.50065 8.44681 5.50065 8.99935Z" stroke="#BEBEBE" stroke-width="1.5"/>
<path d="M9.66667 4.41602L5.5 7.33268M9.66667 13.5827L5.5 10.666" stroke="#BEBEBE" stroke-width="1.5" stroke-linecap="round"/>
<path d="M13.8346 14.4167C13.8346 14.9692 13.6151 15.4991 13.2244 15.8898C12.8337 16.2805 12.3038 16.5 11.7513 16.5C11.1988 16.5 10.6689 16.2805 10.2782 15.8898C9.88746 15.4991 9.66797 14.9692 9.66797 14.4167C9.66797 13.8641 9.88746 13.3342 10.2782 12.9435C10.6689 12.5528 11.1988 12.3333 11.7513 12.3333C12.3038 12.3333 12.8337 12.5528 13.2244 12.9435C13.6151 13.3342 13.8346 13.8641 13.8346 14.4167ZM13.8346 3.58333C13.8346 4.13587 13.6151 4.66577 13.2244 5.05647C12.8337 5.44717 12.3038 5.66667 11.7513 5.66667C11.1988 5.66667 10.6689 5.44717 10.2782 5.05647C9.88746 4.66577 9.66797 4.13587 9.66797 3.58333C9.66797 3.0308 9.88746 2.50089 10.2782 2.11019C10.6689 1.71949 11.1988 1.5 11.7513 1.5C12.3038 1.5 12.8337 1.71949 13.2244 2.11019C13.6151 2.50089 13.8346 3.0308 13.8346 3.58333Z" stroke="#BEBEBE" stroke-width="1.5"/>
</svg>
