<svg width="24" height="24" viewBox="0 0 24 24" fill="black" xmlns="http://www.w3.org/2000/svg">
<path d="M9 12C9 12.663 8.73661 13.2989 8.26777 13.7678C7.79893 14.2366 7.16304 14.5 6.5 14.5C5.83696 14.5 5.20107 14.2366 4.73223 13.7678C4.26339 13.2989 4 12.663 4 12C4 11.337 4.26339 10.7011 4.73223 10.2322C5.20107 9.76339 5.83696 9.5 6.5 9.5C7.16304 9.5 7.79893 9.76339 8.26777 10.2322C8.73661 10.7011 9 11.337 9 12Z" stroke={fill} stroke-width="1.5"/>
<path d="M14 6.5L9 10M14 17.5L9 14" stroke={fill} stroke-width="1.5" stroke-linecap="round"/>
<path d="M19 18.5C19 19.163 18.7366 19.7989 18.2678 20.2678C17.7989 20.7366 17.163 21 16.5 21C15.837 21 15.2011 20.7366 14.7322 20.2678C14.2634 19.7989 14 19.163 14 18.5C14 17.837 14.2634 17.2011 14.7322 16.7322C15.2011 16.2634 15.837 16 16.5 16C17.163 16 17.7989 16.2634 18.2678 16.7322C18.7366 17.2011 19 17.837 19 18.5ZM19 5.5C19 6.16304 18.7366 6.79893 18.2678 7.26777C17.7989 7.73661 17.163 8 16.5 8C15.837 8 15.2011 7.73661 14.7322 7.26777C14.2634 6.79893 14 6.16304 14 5.5C14 4.83696 14.2634 4.20107 14.7322 3.73223C15.2011 3.26339 15.837 3 16.5 3C17.163 3 17.7989 3.26339 18.2678 3.73223C18.7366 4.20107 19 4.83696 19 5.5Z" stroke={fill} stroke-width="1.5"/>
</svg>
