<svg width="15" height="18" viewBox="0 0 15 18" fill="none" xmlns="http://www.w3.org/2000/svg">
<g id="Group">
<path id="Vector" d="M5.50001 8.9974C5.50001 9.54993 5.28052 10.0798 4.88982 10.4705C4.49912 10.8612 3.96921 11.0807 3.41668 11.0807C2.86414 11.0807 2.33424 10.8612 1.94354 10.4705C1.55284 10.0798 1.33334 9.54993 1.33334 8.9974C1.33334 8.44486 1.55284 7.91496 1.94354 7.52426C2.33424 7.13356 2.86414 6.91406 3.41668 6.91406C3.96921 6.91406 4.49912 7.13356 4.88982 7.52426C5.28052 7.91496 5.50001 8.44486 5.50001 8.9974Z" stroke="#5A5A5A" stroke-width="1.5"/>
<path id="Vector_2" d="M9.66667 4.41406L5.5 7.33073M9.66667 13.5807L5.5 10.6641" stroke="#5A5A5A" stroke-width="1.5" stroke-linecap="round"/>
<path id="Vector_3" d="M13.8334 14.4167C13.8334 14.9692 13.6139 15.4991 13.2232 15.8898C12.8325 16.2805 12.3026 16.5 11.75 16.5C11.1975 16.5 10.6676 16.2805 10.2769 15.8898C9.88618 15.4991 9.66669 14.9692 9.66669 14.4167C9.66669 13.8641 9.88618 13.3342 10.2769 12.9435C10.6676 12.5528 11.1975 12.3333 11.75 12.3333C12.3026 12.3333 12.8325 12.5528 13.2232 12.9435C13.6139 13.3342 13.8334 13.8641 13.8334 14.4167ZM13.8334 3.58333C13.8334 4.13587 13.6139 4.66577 13.2232 5.05647C12.8325 5.44717 12.3026 5.66667 11.75 5.66667C11.1975 5.66667 10.6676 5.44717 10.2769 5.05647C9.88618 4.66577 9.66669 4.13587 9.66669 3.58333C9.66669 3.0308 9.88618 2.50089 10.2769 2.11019C10.6676 1.71949 11.1975 1.5 11.75 1.5C12.3026 1.5 12.8325 1.71949 13.2232 2.11019C13.6139 2.50089 13.8334 3.0308 13.8334 3.58333Z" stroke="#5A5A5A" stroke-width="1.5"/>
</g>
</svg>
