<svg width="20" height="20" viewBox="0 0 20 20" fill="none" xmlns="http://www.w3.org/2000/svg">
<g id="&#235;&#167;&#144;&#237;&#146;&#141;&#236;&#132;&#160; ... ">
<ellipse id="Ellipse 317" cx="10.1328" cy="10" rx="8.54187" ry="4" fill="#2DD38D"/>
<path id="Vector" d="M10.1333 0C15.405 0 19.6796 4.37786 19.6796 9.77692C19.6796 12.5497 18.5523 15.0526 16.742 16.8317L17.7962 19.0405C18.05 19.5715 17.5509 20.152 17.0034 19.9614L13.7485 18.8268C12.6331 19.295 11.4123 19.5538 10.1323 19.5538C4.8595 19.5538 0.586 15.176 0.586 9.77692C0.586 4.37786 4.86057 0 10.1333 0ZM14.6327 11.0019C15.2932 11.0019 15.8277 10.4544 15.8277 9.77802C15.8277 9.10163 15.2932 8.55412 14.6327 8.55412C13.9723 8.55412 13.4377 9.10163 13.4377 9.77802C13.4377 10.4544 13.9723 11.0019 14.6327 11.0019ZM10.1333 11.0019C10.7938 11.0019 11.3284 10.4544 11.3284 9.77802C11.3284 9.10163 10.7938 8.55412 10.1333 8.55412C9.4729 8.55412 8.9383 9.10163 8.9383 9.77802C8.9383 10.4544 9.4729 11.0019 10.1333 11.0019ZM5.63396 11.0019C6.29439 11.0019 6.82899 10.4544 6.82899 9.77802C6.82899 9.10163 6.29439 8.55412 5.63396 8.55412C4.97351 8.55412 4.43892 9.10163 4.43892 9.77802C4.43892 10.4544 4.97351 11.0019 5.63396 11.0019Z" fill="#ABEDD1"/>
</g>
</svg>
