<svg width="20" height="20" viewBox="0 0 20 20" fill="none" xmlns="http://www.w3.org/2000/svg">
<ellipse cx="10.1327" cy="10" rx="8.54187" ry="4" fill="#B3D36F"/>
<path d="M10.1334 0C15.4051 0 19.6797 4.37786 19.6797 9.77692C19.6797 12.5497 18.5524 15.0526 16.7421 16.8317L17.7963 19.0405C18.0501 19.5715 17.551 20.152 17.0035 19.9614L13.7486 18.8268C12.6332 19.295 11.4124 19.5538 10.1324 19.5538C4.85959 19.5538 0.586092 15.176 0.586092 9.77692C0.586092 4.37786 4.86066 0 10.1334 0ZM14.6328 11.0019C15.2932 11.0019 15.8278 10.4544 15.8278 9.77802C15.8278 9.10163 15.2932 8.55412 14.6328 8.55412C13.9724 8.55412 13.4378 9.10163 13.4378 9.77802C13.4378 10.4544 13.9724 11.0019 14.6328 11.0019ZM10.1334 11.0019C10.7939 11.0019 11.3285 10.4544 11.3285 9.77802C11.3285 9.10163 10.7939 8.55412 10.1334 8.55412C9.47299 8.55412 8.9384 9.10163 8.9384 9.77802C8.9384 10.4544 9.47299 11.0019 10.1334 11.0019ZM5.63405 11.0019C6.29449 11.0019 6.82908 10.4544 6.82908 9.77802C6.82908 9.10163 6.29449 8.55412 5.63405 8.55412C4.97361 8.55412 4.43902 9.10163 4.43902 9.77802C4.43902 10.4544 4.97361 11.0019 5.63405 11.0019Z" fill="#C8DF96"/>
</svg>
