<svg width="38" height="38" viewBox="0 0 38 38" fill="none" xmlns="http://www.w3.org/2000/svg">
<path fill-rule="evenodd" clip-rule="evenodd" d="M33.6212 10.8492L28.35 15.9177L28.35 15.9177C27.7249 16.5188 27.4118 16.8198 27.0673 17.0781C26.66 17.3844 26.2227 17.6444 25.7554 17.8583C25.3611 18.0385 24.9418 18.1729 24.1023 18.4417L19.679 19.8604C19.4765 19.9257 19.259 19.9354 19.0511 19.8884C18.8431 19.8414 18.653 19.7395 18.5019 19.5943C18.3509 19.4491 18.245 19.2662 18.1961 19.0663C18.1472 18.8663 18.1573 18.6572 18.2252 18.4625L19.7007 14.2094L19.706 14.1939C19.982 13.3979 20.1211 12.9965 20.3073 12.6198C20.5297 12.1724 20.8018 11.7495 21.1187 11.3583C21.3874 11.0271 21.7005 10.726 22.3256 10.125L24.5356 8H4.34957C2.49965 8 1 9.49965 1 11.3496V27.5238C1 29.3737 2.49965 30.8733 4.34957 30.8733H7.69922L15.6543 37L14.3983 30.8733H30.3087C32.1587 30.8733 33.6583 29.3737 33.6583 27.5238V11.3496C33.6583 11.1795 33.6456 11.0125 33.6212 10.8492Z" fill="#131313"/>
<path d="M4 18C4 17.4477 4.44772 17 5 17H15C15.5523 17 16 17.4477 16 18C16 18.5523 15.5523 19 15 19H5C4.44772 19 4 18.5523 4 18Z" fill="#2DD38D"/>
<rect x="4" y="23" width="26" height="2" rx="1" fill="#2DD38D"/>
<path d="M26.5739 15.377L31.8288 10.1221C30.9448 9.75278 30.1419 9.2135 29.4657 8.53483C28.7867 7.85846 28.2471 7.05532 27.8777 6.17099L22.6229 11.4259C22.2129 11.8358 22.0076 12.0411 21.8314 12.2671C21.6235 12.5339 21.445 12.8223 21.2992 13.1275C21.1763 13.3861 21.0846 13.6618 20.9013 14.2117L19.9336 17.1127C19.8891 17.2455 19.8825 17.3881 19.9145 17.5245C19.9466 17.6609 20.0161 17.7856 20.1151 17.8847C20.2142 17.9837 20.3389 18.0532 20.4753 18.0853C20.6117 18.1173 20.7543 18.1107 20.8871 18.0662L23.7881 17.0985C24.3387 16.9152 24.6137 16.8235 24.8723 16.7006C25.1788 16.5547 25.4656 16.3773 25.7327 16.1684C25.9587 15.9922 26.164 15.7869 26.5739 15.377ZM33.2868 8.66414C33.8107 8.14019 34.1051 7.42956 34.1051 6.68859C34.1051 5.94762 33.8107 5.23699 33.2868 4.71304C32.7628 4.1891 32.0522 3.89474 31.3112 3.89474C30.5702 3.89474 29.8596 4.1891 29.3357 4.71304L28.7054 5.34326L28.7324 5.42212C29.0429 6.3108 29.5512 7.11737 30.2188 7.78099C30.9023 8.46862 31.7371 8.98688 32.6565 9.29435L33.2868 8.66414Z" fill="black"/>
</svg>
