<svg width="94" height="119" viewBox="0 0 94 119" fill="none" xmlns="http://www.w3.org/2000/svg">
<g filter="url(#filter0_d_3739_47616)">
<path fill-rule="evenodd" clip-rule="evenodd" d="M85 6H9V83.7405H85V6ZM9.06668 83.7421L46.9999 108.108L84.9331 83.7421L9.06668 83.7421Z" fill="#282828"/>
</g>
<path d="M12 80.6618V10H81V80.6618L46.5 103L12 80.6618Z" stroke="#BEBEBE"/>
<rect x="42.6533" y="58.8555" width="8.69291" height="6.04724" fill="url(#paint0_linear_3739_47616)"/>
<rect x="36.606" y="64.1484" width="21.1654" height="6.04724" fill="url(#paint1_linear_3739_47616)"/>
<path d="M60.417 43.1735V39.9609H69.4879C70.2438 48.2759 63.7556 50.7326 60.417 50.9216V48.0869C64.4989 47.1798 66.0233 44.4334 66.2753 43.1735H60.417Z" fill="url(#paint2_linear_3739_47616)"/>
<path d="M34.021 43.1735V39.9609H24.9501C24.1942 48.2759 30.6824 50.7326 34.021 50.9216V48.0869C29.9391 47.1798 28.4147 44.4334 28.1627 43.1735H34.021Z" fill="url(#paint3_linear_3739_47616)"/>
<path d="M33.7715 47.4238V36.1797H60.7951V47.4238C60.7951 54.8862 54.7457 60.9356 47.2833 60.9356C39.8209 60.9356 33.7715 54.8862 33.7715 47.4238Z" fill="white" fill-opacity="0.8"/>
<path d="M33.7715 47.4238V36.1797H60.7951V47.4238C60.7951 54.8862 54.7457 60.9356 47.2833 60.9356C39.8209 60.9356 33.7715 54.8862 33.7715 47.4238Z" fill="url(#paint4_linear_3739_47616)"/>
<path d="M47.1273 45.0822C47.1689 45.0109 47.2285 44.9516 47.3001 44.9105C47.3717 44.8693 47.4529 44.8477 47.5355 44.8477C47.6181 44.8477 47.6992 44.8693 47.7709 44.9105C47.8425 44.9516 47.9021 45.0109 47.9437 45.0822L49 46.8956L51.0516 47.3401C51.1323 47.3577 51.207 47.396 51.2682 47.4514C51.3294 47.5068 51.3751 47.5773 51.4006 47.6559C51.4261 47.7344 51.4306 47.8183 51.4136 47.8991C51.3966 47.9799 51.3587 48.0548 51.3037 48.1164L49.9052 49.6815L50.1169 51.7697C50.1252 51.8519 50.1119 51.9349 50.0781 52.0104C50.0444 52.0858 49.9914 52.1511 49.9246 52.1997C49.8577 52.2482 49.7793 52.2784 49.6971 52.2872C49.6149 52.296 49.5318 52.2831 49.4562 52.2497L47.5355 51.4031L45.6147 52.2497C45.5391 52.2831 45.456 52.296 45.3739 52.2872C45.2917 52.2784 45.2132 52.2482 45.1464 52.1997C45.0795 52.1511 45.0266 52.0858 44.9928 52.0104C44.9591 51.9349 44.9457 51.8519 44.9541 51.7697L45.1657 49.6815L43.7673 48.1168C43.7122 48.0552 43.6742 47.9802 43.6572 47.8994C43.6401 47.8185 43.6445 47.7346 43.6701 47.656C43.6956 47.5774 43.7412 47.5069 43.8025 47.4514C43.8638 47.396 43.9386 47.3576 44.0194 47.3401L46.0709 46.8956L47.1273 45.0822Z" fill="url(#paint5_linear_3739_47616)"/>
<defs>
<filter id="filter0_d_3739_47616" x="0.877863" y="0.198474" width="92.2443" height="118.354" filterUnits="userSpaceOnUse" color-interpolation-filters="sRGB">
<feFlood flood-opacity="0" result="BackgroundImageFix"/>
<feColorMatrix in="SourceAlpha" type="matrix" values="0 0 0 0 0 0 0 0 0 0 0 0 0 0 0 0 0 0 127 0" result="hardAlpha"/>
<feOffset dy="2.32061"/>
<feGaussianBlur stdDeviation="4.06107"/>
<feComposite in2="hardAlpha" operator="out"/>
<feColorMatrix type="matrix" values="0 0 0 0 0.190415 0 0 0 0 0.190415 0 0 0 0 0.190415 0 0 0 0.25 0"/>
<feBlend mode="normal" in2="BackgroundImageFix" result="effect1_dropShadow_3739_47616"/>
<feBlend mode="normal" in="SourceGraphic" in2="effect1_dropShadow_3739_47616" result="shape"/>
</filter>
<linearGradient id="paint0_linear_3739_47616" x1="46.9998" y1="58.8555" x2="46.9998" y2="64.9027" gradientUnits="userSpaceOnUse">
<stop stop-color="white"/>
<stop offset="1" stop-color="#999999"/>
</linearGradient>
<linearGradient id="paint1_linear_3739_47616" x1="47.1886" y1="64.1484" x2="47.1886" y2="70.1957" gradientUnits="userSpaceOnUse">
<stop stop-color="white"/>
<stop offset="1" stop-color="#999999"/>
</linearGradient>
<linearGradient id="paint2_linear_3739_47616" x1="69.5486" y1="45.4413" x2="60.417" y2="45.4413" gradientUnits="userSpaceOnUse">
<stop stop-color="white"/>
<stop offset="1" stop-color="#999999"/>
</linearGradient>
<linearGradient id="paint3_linear_3739_47616" x1="34.021" y1="45.4413" x2="24.8894" y2="45.4413" gradientUnits="userSpaceOnUse">
<stop stop-color="#999999"/>
<stop offset="1" stop-color="white"/>
</linearGradient>
<linearGradient id="paint4_linear_3739_47616" x1="47.2833" y1="36.1797" x2="47.2833" y2="60.9356" gradientUnits="userSpaceOnUse">
<stop stop-color="white" stop-opacity="0"/>
<stop offset="1" stop-color="white"/>
</linearGradient>
<linearGradient id="paint5_linear_3739_47616" x1="47.5353" y1="44.8477" x2="47.5353" y2="52.2899" gradientUnits="userSpaceOnUse">
<stop stop-color="#9B9B9B"/>
<stop offset="1" stop-color="#CBCBCB"/>
</linearGradient>
</defs>
</svg>
