<svg width="67" height="80" viewBox="0 0 67 80" fill="none" xmlns="http://www.w3.org/2000/svg">
<path d="M63.3333 20.0007H56.6667C56.6667 10.6673 49.3333 3.33398 40 3.33398C30.6667 3.33398 23.3333 10.6673 23.3333 20.0007H16.6667C13 20.0007 10 23.0007 10 26.6673V66.6673C10 70.334 13 73.334 16.6667 73.334H63.3333C67 73.334 70 70.334 70 66.6673V26.6673C70 23.0007 67 20.0007 63.3333 20.0007ZM40 10.0007C45.6667 10.0007 50 14.334 50 20.0007H30C30 14.334 34.3333 10.0007 40 10.0007ZM63.3333 66.6673H16.6667V26.6673H63.3333V66.6673ZM40 40.0006C34.3333 40.0006 30 35.6673 30 30.0007H23.3333C23.3333 39.334 30.6667 46.6673 40 46.6673C49.3333 46.6673 56.6667 39.334 56.6667 30.0007H50C50 35.6673 45.6667 40.0006 40 40.0006Z" fill="#D7D7D7"/>
</svg>
