<svg width="67" height="80" viewBox="0 0 67 80" fill="none" xmlns="http://www.w3.org/2000/svg">
<path d="M50.3335 6.0332L40.9002 15.4665C38.3335 18.0665 38.3335 22.2999 40.9002 24.8999L45.6002 29.5999L30.4335 44.7665L21.0335 35.3332L16.3002 39.9999C-0.19979 56.6665 11.6669 68.3332 11.6669 68.3332C11.6669 68.3332 23.3335 79.9999 40.0002 63.6332L44.7002 58.9332L35.3669 49.5999L50.5002 34.4665L55.1335 39.0999C57.7336 41.6665 61.9669 41.6665 64.5669 39.0999L74.0002 29.6665L50.3335 6.0332ZM59.7669 34.2665L55.1669 29.6665L50.3669 24.8665L45.7002 20.1999L50.4002 15.4999L64.5002 29.5999L59.7669 34.2665Z" fill="#D7D7D7"/>
</svg>
