<svg width="61" height="68" viewBox="0 0 61 68" fill="none" xmlns="http://www.w3.org/2000/svg">
<path d="M7.33317 0.666016H60.6665C64.3332 0.666016 67.3332 3.66602 67.3332 7.33268V27.3327H27.3332V60.666H42.4998C43.0998 61.666 43.6998 62.5993 44.2998 63.466C45.2665 64.8993 46.1998 66.1993 47.0665 67.3327H7.33317C3.6665 67.3327 0.666504 64.3327 0.666504 60.666V7.33268C0.666504 3.66602 3.6665 0.666016 7.33317 0.666016ZM20.6665 7.33268H7.33317V40.666H20.6665V7.33268ZM7.33317 47.3327V60.666H20.6665V47.3327H7.33317ZM27.3332 20.666H60.6665V7.33268H27.3332V20.666ZM55.6665 67.3327C55.6665 67.3327 53.7332 65.166 51.4332 62.0327C51.1332 61.5993 50.7998 61.1327 50.4665 60.666C47.3332 56.1993 43.9998 50.2993 43.9998 45.666C43.9998 39.3327 49.3332 33.9993 55.6665 33.9993C57.4332 33.9993 59.1332 34.4327 60.6665 35.166C64.5665 37.066 67.3332 41.0993 67.3332 45.666C67.3332 50.7993 63.2332 57.466 59.8998 62.0327C57.5998 65.166 55.6665 67.3327 55.6665 67.3327ZM51.6665 45.9993C51.6665 47.9993 53.3332 49.9993 55.6665 49.9993C57.9998 49.9993 59.9998 47.9993 59.6665 45.9993C59.6665 43.9993 57.6665 41.9993 55.6665 41.9993C53.6665 41.9993 51.6665 43.666 51.6665 45.9993Z" fill="#D7D7D7"/>
</svg>
