<svg width="67" height="80" viewBox="0 0 67 80" fill="none" xmlns="http://www.w3.org/2000/svg">
<path d="M39.9998 26.666C43.536 26.666 46.9274 28.0708 49.4279 30.5713C51.9284 33.0717 53.3331 36.4631 53.3331 39.9993C53.3331 43.5356 51.9284 46.927 49.4279 49.4274C46.9274 51.9279 43.536 53.3327 39.9998 53.3327C36.4636 53.3327 33.0722 51.9279 30.5717 49.4274C28.0712 46.927 26.6665 43.5356 26.6665 39.9993C26.6665 36.4631 28.0712 33.0717 30.5717 30.5713C33.0722 28.0708 36.4636 26.666 39.9998 26.666ZM39.9998 33.3327C38.2317 33.3327 36.536 34.0351 35.2858 35.2853C34.0355 36.5355 33.3331 38.2312 33.3331 39.9993C33.3331 41.7675 34.0355 43.4632 35.2858 44.7134C36.536 45.9636 38.2317 46.666 39.9998 46.666C41.7679 46.666 43.4636 45.9636 44.7138 44.7134C45.9641 43.4632 46.6665 41.7675 46.6665 39.9993C46.6665 38.2312 45.9641 36.5355 44.7138 35.2853C43.4636 34.0351 41.7679 33.3327 39.9998 33.3327ZM33.3331 73.3327C32.4998 73.3327 31.7998 72.7327 31.6665 71.9327L30.4331 63.0993C28.3331 62.266 26.5331 61.1327 24.7998 59.7994L16.4998 63.166C15.7665 63.4327 14.8665 63.166 14.4665 62.4327L7.7998 50.8993C7.59579 50.5559 7.52387 50.1499 7.59749 49.7572C7.67111 49.3646 7.88523 49.0122 8.19981 48.766L15.2331 43.2327L14.9998 39.9993L15.2331 36.666L8.19981 31.2327C7.88523 30.9865 7.67111 30.6341 7.59749 30.2414C7.52387 29.8488 7.59579 29.4428 7.7998 29.0993L14.4665 17.566C14.8665 16.8327 15.7665 16.5327 16.4998 16.8327L24.7998 20.166C26.5331 18.866 28.3331 17.7327 30.4331 16.8993L31.6665 8.06602C31.7998 7.26602 32.4998 6.66602 33.3331 6.66602H46.6665C47.4998 6.66602 48.1998 7.26602 48.3331 8.06602L49.5665 16.8993C51.6665 17.7327 53.4665 18.866 55.1998 20.166L63.4998 16.8327C64.2331 16.5327 65.1331 16.8327 65.5331 17.566L72.1998 29.0993C72.6331 29.8327 72.4331 30.7327 71.7998 31.2327L64.7665 36.666L64.9998 39.9993L64.7665 43.3327L71.7998 48.766C72.4331 49.266 72.6331 50.166 72.1998 50.8993L65.5331 62.4327C65.1331 63.166 64.2331 63.466 63.4998 63.166L55.1998 59.8327C53.4665 61.1327 51.6665 62.266 49.5665 63.0993L48.3331 71.9327C48.1998 72.7327 47.4998 73.3327 46.6665 73.3327H33.3331ZM37.4998 13.3327L36.2665 22.0327C32.2665 22.866 28.7331 24.9993 26.1665 27.966L18.1331 24.4993L15.6331 28.8327L22.6665 33.9993C21.3331 37.8882 21.3331 42.1105 22.6665 45.9993L15.5998 51.1993L18.0998 55.5327L26.1998 52.066C28.7665 54.9993 32.2665 57.1327 36.2331 57.9327L37.4665 66.666H42.5331L43.7665 57.966C47.7331 57.1327 51.2331 54.9993 53.7998 52.066L61.8998 55.5327L64.3998 51.1993L57.3331 46.0327C58.6665 42.1327 58.6665 37.8993 57.3331 33.9993L64.3665 28.8327L61.8665 24.4993L53.8331 27.966C51.2139 24.9338 47.6609 22.8583 43.7331 22.066L42.4998 13.3327H37.4998Z" fill="#D7D7D7"/>
</svg>
