<svg width="67" height="80" viewBox="0 0 67 80" fill="none" xmlns="http://www.w3.org/2000/svg">
<path d="M49.9998 16.666C46.4636 16.666 43.0722 18.0708 40.5717 20.5713C38.0713 23.0717 36.6665 26.4631 36.6665 29.9993C36.6665 33.5356 38.0713 36.927 40.5717 39.4274C43.0722 41.9279 46.4636 43.3327 49.9998 43.3327C53.5361 43.3327 56.9274 41.9279 59.4279 39.4274C61.9284 36.927 63.3332 33.5356 63.3332 29.9993C63.3332 26.4631 61.9284 23.0717 59.4279 20.5713C56.9274 18.0708 53.5361 16.666 49.9998 16.666ZM49.9998 49.9993C41.0998 49.9993 23.3332 54.466 23.3332 63.3327V69.9993H76.6665V63.3327C76.6665 54.466 58.8998 49.9993 49.9998 49.9993ZM24.1332 17.866C17.3998 25.1993 17.3998 35.366 24.1332 42.0993L29.7332 36.466C26.9332 32.5327 26.9332 27.4327 29.7332 23.4993L24.1332 17.866ZM13.0998 6.66602C-0.000167847 20.166 0.0998306 40.366 13.0998 53.3327L18.5332 47.8993C9.29984 37.2993 9.29984 22.166 18.5332 12.0993L13.0998 6.66602Z" fill="#D7D7D7"/>
</svg>
