<svg width="67" height="80" viewBox="0 0 67 80" fill="none" xmlns="http://www.w3.org/2000/svg">
<path d="M40 18.334C43.0942 18.334 46.0617 19.5631 48.2496 21.7511C50.4375 23.939 51.6667 26.9065 51.6667 30.0007C51.6667 33.0948 50.4375 36.0623 48.2496 38.2502C46.0617 40.4382 43.0942 41.6673 40 41.6673C36.9058 41.6673 33.9383 40.4382 31.7504 38.2502C29.5625 36.0623 28.3333 33.0948 28.3333 30.0007C28.3333 26.9065 29.5625 23.939 31.7504 21.7511C33.9383 19.5631 36.9058 18.334 40 18.334ZM16.6667 26.6673C18.5333 26.6673 20.2667 27.1673 21.7667 28.0673C21.2667 32.834 22.6667 37.5673 25.5333 41.2673C23.8667 44.4673 20.5333 46.6673 16.6667 46.6673C14.0145 46.6673 11.471 45.6138 9.5956 43.7384C7.72024 41.863 6.66667 39.3195 6.66667 36.6673C6.66667 34.0152 7.72024 31.4716 9.5956 29.5962C11.471 27.7209 14.0145 26.6673 16.6667 26.6673ZM63.3333 26.6673C65.9855 26.6673 68.529 27.7209 70.4044 29.5962C72.2798 31.4716 73.3333 34.0152 73.3333 36.6673C73.3333 39.3195 72.2798 41.863 70.4044 43.7384C68.529 45.6138 65.9855 46.6673 63.3333 46.6673C59.4667 46.6673 56.1333 44.4673 54.4667 41.2673C57.3729 37.5154 58.7219 32.788 58.2333 28.0673C59.7333 27.1673 61.4667 26.6673 63.3333 26.6673ZM18.3333 60.834C18.3333 53.934 28.0333 48.334 40 48.334C51.9667 48.334 61.6667 53.934 61.6667 60.834V66.6673H18.3333V60.834ZM0 66.6673V61.6673C0 57.034 6.3 53.134 14.8333 52.0007C12.8667 54.2673 11.6667 57.4007 11.6667 60.834V66.6673H0ZM80 66.6673H68.3333V60.834C68.3333 57.4007 67.1333 54.2673 65.1667 52.0007C73.7 53.134 80 57.034 80 61.6673V66.6673Z" fill="#D7D7D7"/>
</svg>
