<svg width="54" height="54" viewBox="0 0 54 54" fill="none" xmlns="http://www.w3.org/2000/svg">
<g id="Frame 427320625">
<g clip-path="url(#clip0_3757_47056)">
<rect width="54" height="54" rx="8.4375" fill="white"/>
<g id="Group 483932">
<path id="Union" fill-rule="evenodd" clip-rule="evenodd" d="M20.1209 12.4606C20.0775 12.1579 20.055 11.8484 20.055 11.5337C20.055 7.95976 22.9523 5.0625 26.5262 5.0625C30.1002 5.0625 32.9974 7.95976 32.9974 11.5337C32.9974 12.9206 32.5611 14.2056 31.8183 15.259C44.6134 20.7353 53.5781 33.44 53.5781 48.2385C53.5781 68.0417 37.5244 84.0954 17.7212 84.0954C-2.08201 84.0954 -18.1357 68.0417 -18.1357 48.2385C-18.1357 28.4353 -2.08201 12.3816 17.7212 12.3816C18.5276 12.3816 19.3278 12.4082 20.1209 12.4606Z" fill="#2DD38D"/>
<path id="Vector 1718" d="M23.6094 36.6751C25.3308 39.0379 30.1913 42.3457 35.8619 36.6751" stroke="#292929" stroke-width="0.998909" stroke-linecap="round"/>
<circle id="Ellipse 753" cx="1.69737" cy="1.69737" r="1.69737" transform="matrix(-1 0 0 1 35.8613 29.4607)" fill="#292929"/>
<circle id="Ellipse 754" cx="1.69737" cy="1.69737" r="1.69737" transform="matrix(-1 0 0 1 26.5264 29.885)" fill="#292929"/>
<path id="Vector 1697" d="M-2.17446 54C-2.71352 25.6513 4.29743 22.8332 13.9219 12.6562C-10.5636 12.6562 -20.6623 40.6004 -22.3594 54H-2.17446Z" fill="#20B878"/>
</g>
</g>
</g>
<defs>
<clipPath id="clip0_3757_47056">
<rect width="54" height="54" rx="8.4375" fill="white"/>
</clipPath>
</defs>
</svg>
