<svg width="159" height="159" viewBox="0 0 159 159" fill="none" xmlns="http://www.w3.org/2000/svg">
<ellipse cx="109.312" cy="124.219" rx="8.28125" ry="8.28125" transform="rotate(-180 109.312 124.219)" fill="#C9F2FF"/>
<ellipse cx="53" cy="124.219" rx="8.28125" ry="8.28125" transform="rotate(-180 53 124.219)" fill="#C9F2FF"/>
<ellipse cx="130.844" cy="94.4062" rx="8.28125" ry="8.28125" transform="rotate(-180 130.844 94.4062)" fill="#C9F2FF"/>
<ellipse cx="81.1562" cy="94.4062" rx="8.28125" ry="8.28125" transform="rotate(-180 81.1562 94.4062)" fill="#C9F2FF"/>
<ellipse cx="31.4688" cy="94.4062" rx="8.28125" ry="8.28125" transform="rotate(-180 31.4688 94.4062)" fill="#C9F2FF"/>
<circle cx="109.312" cy="64.5938" r="8.28125" transform="rotate(-180 109.312 64.5938)" fill="#C9F2FF"/>
<circle cx="53" cy="64.5938" r="8.28125" transform="rotate(-180 53 64.5938)" fill="#C9F2FF"/>
<ellipse cx="130.844" cy="34.7813" rx="8.28125" ry="8.28125" transform="rotate(-180 130.844 34.7813)" fill="#C9F2FF"/>
<ellipse cx="81.1562" cy="34.7813" rx="8.28125" ry="8.28125" transform="rotate(-180 81.1562 34.7813)" fill="#C9F2FF"/>
<ellipse cx="31.4688" cy="34.7813" rx="8.28125" ry="8.28125" transform="rotate(-180 31.4688 34.7813)" fill="#C9F2FF"/>
</svg>
